<?xml version="1.0" standalone="no"?><!DOCTYPE svg PUBLIC "-//W3C//DTD SVG 1.1//EN" "http://www.w3.org/Graphics/SVG/1.1/DTD/svg11.dtd"><svg t="1652074310120" class="icon" viewBox="0 0 1024 1024" version="1.1" xmlns="http://www.w3.org/2000/svg" p-id="5679" xmlns:xlink="http://www.w3.org/1999/xlink" width="200" height="200"><defs><style type="text/css">@font-face { font-family: feedback-iconfont; src: url("//at.alicdn.com/t/font_1031158_u69w8yhxdu.woff2?t=1630033759944") format("woff2"), url("//at.alicdn.com/t/font_1031158_u69w8yhxdu.woff?t=1630033759944") format("woff"), url("//at.alicdn.com/t/font_1031158_u69w8yhxdu.ttf?t=1630033759944") format("truetype"); }
</style></defs><path d="M709.952 177.92v108.928h-394.304v-108.928h-153.664l-0.192 781.568 702.848-0.256 0.32-781.312h-155.008zM384 885.76l128-256 128 256h-256zM768 565.76h-512v-64h512v64zM768 437.76h-512v-64h512v64z" fill="" p-id="5680"></path><path d="M653.952 118.784h-56.832c0.007-0.325 0.011-0.708 0.011-1.091 0-14.998-6.178-28.551-16.128-38.258-9.876-9.978-23.558-16.151-38.683-16.151-0.399 0-0.798 0.004-1.195 0.013l-56.709-0.001c-0.346-0.007-0.753-0.012-1.162-0.012-15.085 0-28.734 6.147-38.579 16.073-10.041 9.711-16.271 23.299-16.271 38.342 0 0.382 0.004 0.762 0.012 1.142l-56.897-0.057v111.872h282.432v-111.872zM537.984 170.112c-6.173 6.361-14.801 10.307-24.351 10.307-0.147 0-0.293-0.001-0.439-0.003-0.267 0.009-0.608 0.014-0.95 0.014-9.539 0-18.154-3.952-24.299-10.308-6.142-6.195-9.932-14.711-9.932-24.115 0-0.165 0.001-0.331 0.004-0.496-0.012-0.303-0.018-0.688-0.018-1.075 0-9.369 3.798-17.849 9.938-23.988 6.261-6.031 14.788-9.745 24.185-9.745 0.385 0 0.769 0.006 1.152 0.019 9.543-0.001 17.865 3.327 24.777 9.727 6.474 6.035 10.51 14.612 10.51 24.132 0 0.336-0.005 0.671-0.015 1.005 0.001-0.005 0.001 0.046 0.001 0.098 0 9.622-4.052 18.298-10.543 24.413z" fill="" p-id="5681"></path></svg>