<?xml version="1.0" standalone="no"?><!DOCTYPE svg PUBLIC "-//W3C//DTD SVG 1.1//EN" "http://www.w3.org/Graphics/SVG/1.1/DTD/svg11.dtd"><svg t="1653661167625" class="icon" viewBox="0 0 1262 1024" version="1.1" xmlns="http://www.w3.org/2000/svg" p-id="1900" xmlns:xlink="http://www.w3.org/1999/xlink" width="246.484375" height="200"><defs><style type="text/css">@font-face { font-family: feedback-iconfont; src: url("//at.alicdn.com/t/font_1031158_u69w8yhxdu.woff2?t=1630033759944") format("woff2"), url("//at.alicdn.com/t/font_1031158_u69w8yhxdu.woff?t=1630033759944") format("woff"), url("//at.alicdn.com/t/font_1031158_u69w8yhxdu.ttf?t=1630033759944") format("truetype"); }
</style></defs><path d="M1031.013699 561.09589c127.824658 0 231.452055 103.627397 231.452054 231.452055s-103.627397 231.452055-231.452054 231.452055-231.452055-103.627397-231.452055-231.452055 103.627397-231.452055 231.452055-231.452055zM261.842411 38.357918a1168.348932 1168.348932 0 0 1 593.828822 0c32.732932 9.300164 56.109589 34.865096 65.458849 67.415671l51.438466 197.589918h77.150685c39.739616 0 70.136986 30.222027 70.136986 69.737205 0 37.193644-28.054795 67.415671-63.123287 69.74422 23.376658 13.943233 39.739616 34.865096 51.431452 58.115506-25.719233-6.97863-51.431452-11.628712-79.486247-11.628712-168.328767 0-303.931616 134.831342-303.931616 302.206247 0 16.271781 2.342575 30.222027 4.678137 46.493808H303.924603v46.493808c0 25.564932-21.041096 46.486795-46.753315 46.486795h-140.273973C91.178082 931.012384 70.136986 910.097534 70.136986 884.525589v-48.815342c-39.74663-11.628712-70.136986-46.500822-70.136986-90.666083V559.075945c0-51.14389 28.054795-97.630685 70.136986-120.881096-28.054795-9.300164-46.760329-34.87211-46.760328-65.087123 0-39.522192 30.39737-69.744219 70.136986-69.744219H147.287671l49.095891-197.589918c9.34926-32.543562 35.068493-58.115507 65.458849-67.415671zM1073.264219 665.740274a23.054027 23.054027 0 0 0-32.277041 0.280548 22.331616 22.331616 0 0 0 0.280548 31.856219l73.138849 70.747178h-221.780164c-12.189808 0-22.233425 10.064658-22.892712 22.619178L869.69863 792.547945c0 13.157699 10.310137 23.916712 22.927781 23.916713h221.057753l-67.710246 71.504657a22.247452 22.247452 0 0 0 0.084164 30.825206l0.981918 0.96789c4.348493 4.004822 9.980493 6.045808 15.535342 6.045808 6.059836 0 12.189808-2.384658 16.748713-7.104877l106.888767-112.871452a22.33863 22.33863 0 0 0-0.715397-31.435397zM187.034301 535.825534c-51.438466 0-93.520658 41.843726-93.520657 92.987617 0 51.14389 42.082192 92.987616 93.520657 92.987616C238.465753 721.800767 280.547945 679.957041 280.547945 628.813151c0-51.14389-42.082192-92.987616-93.513644-92.987617zM561.09589 94.144877c-93.513644 0-184.691726 11.628712-273.534246 34.872109l-51.431452 244.083726h649.931397L834.630137 129.024c-88.842521-23.250411-180.020603-34.879123-273.534247-34.879123z" p-id="1901"></path></svg>