<?xml version="1.0" standalone="no"?><!DOCTYPE svg PUBLIC "-//W3C//DTD SVG 1.1//EN" "http://www.w3.org/Graphics/SVG/1.1/DTD/svg11.dtd"><svg t="1652074784217" class="icon" viewBox="0 0 1024 1024" version="1.1" xmlns="http://www.w3.org/2000/svg" p-id="8118" xmlns:xlink="http://www.w3.org/1999/xlink" width="200" height="200"><defs><style type="text/css">@font-face { font-family: feedback-iconfont; src: url("//at.alicdn.com/t/font_1031158_u69w8yhxdu.woff2?t=1630033759944") format("woff2"), url("//at.alicdn.com/t/font_1031158_u69w8yhxdu.woff?t=1630033759944") format("woff"), url("//at.alicdn.com/t/font_1031158_u69w8yhxdu.ttf?t=1630033759944") format("truetype"); }
</style></defs><path d="M512 0.0008a442.181655 442.181655 0 0 0-116.363909 869.003321A289.744774 289.744774 0 0 1 512 1024a289.744774 289.744774 0 0 1 116.362909-154.995879A442.181655 442.181655 0 0 0 512 0.0008zM207.360238 176.640662l40.959968-40.959968a26.297979 26.297979 0 0 1 18.384986-7.679994h490.589616a26.297979 26.297979 0 0 1 18.384986 7.679994l40.959968 40.959968a26.06498 26.06498 0 0 1-18.618985 44.450965H225.978223a26.06498 26.06498 0 0 1-18.617985-44.449965z m583.911544 102.63292v209.454836a23.272982 23.272982 0 0 1-46.544964 0V279.273582a23.272982 23.272982 0 0 1 46.544964 0z m-162.908873 0v209.454836a23.272982 23.272982 0 0 1-46.544964 0V279.273582a23.272982 23.272982 0 0 1 46.544964 0z m-162.908873 0v209.454836a23.272982 23.272982 0 0 1-46.544963 0V279.273582a23.272982 23.272982 0 0 1 46.544963 0z m-162.908872 0v209.454836a23.272982 23.272982 0 0 1-46.544964 0V279.273582a23.272982 23.272982 0 0 1 46.544964 0z m511.9996 418.908673h-605.089528a46.544964 46.544964 0 0 1-46.545963-46.544964v-69.818946a46.544964 46.544964 0 0 1 46.544963-46.544963h605.089528a46.544964 46.544964 0 0 1 46.545963 46.544963v69.818946a46.544964 46.544964 0 0 1-46.544963 46.544964z" p-id="8119"></path></svg>