<?xml version="1.0" standalone="no"?><!DOCTYPE svg PUBLIC "-//W3C//DTD SVG 1.1//EN" "http://www.w3.org/Graphics/SVG/1.1/DTD/svg11.dtd"><svg t="1652859201358" class="icon" viewBox="0 0 1033 1024" version="1.1" xmlns="http://www.w3.org/2000/svg" p-id="3065" xmlns:xlink="http://www.w3.org/1999/xlink" width="201.7578125" height="200"><defs><style type="text/css">@font-face { font-family: feedback-iconfont; src: url("//at.alicdn.com/t/font_1031158_u69w8yhxdu.woff2?t=1630033759944") format("woff2"), url("//at.alicdn.com/t/font_1031158_u69w8yhxdu.woff?t=1630033759944") format("woff"), url("//at.alicdn.com/t/font_1031158_u69w8yhxdu.ttf?t=1630033759944") format("truetype"); }
</style></defs><path d="M446.96576 2.65216c8.32512-0.94208 16.72192-0.67584 25.09824-0.70656 37.46816 0.28672 74.92608-0.1024 112.39424 0.22528 29.46048 31.44704 64.74752 56.45312 98.7136 82.66752 17.21344 12.91264 34.37568 25.91744 51.968 38.30784-0.37888 20.03968 2.73408 41.73824-6.94272 60.22144-10.19904 21.504-33.62816 35.71712-57.45664 34.69312-105.82016 0.1536-211.65056-0.0512-317.47072 0.1024-31.39584 0.9216-60.70272-26.05056-62.39232-57.41568-1.32096-12.09344-1.72032-24.33024-0.64512-36.4544 1.77152-3.54304 5.71392-5.24288 8.54016-7.80288 38.77888-28.37504 77.84448-56.41216 115.59936-86.15936 11.43808-8.5504 21.06368-19.27168 32.59392-27.67872m56.25856 58.30656c-26.39872 3.69664-49.05984 25.6512-53.23776 52.00896-1.14688 11.27424-0.77824 22.94784 3.44064 33.60768 9.53344 24.36096 34.9696 42.67008 61.60384 40.57088 31.56992-0.22528 59.82208-28.3136 60.85632-59.7504 0.57344-14.21312-3.13344-28.83584-11.6736-40.33536-13.1072-19.38432-37.8368-30.08512-60.98944-26.10176z" p-id="3066"></path><path d="M103.45472 93.25568c17.79712-9.85088 38.07232-14.70464 58.35776-15.1552 30.3616-0.7168 60.74368-0.06144 91.11552-0.27648-0.0512 46.08 0.12288 92.16-0.13312 138.24 0.12288 6.88128 0.26624 13.824 1.44384 20.62336 167.50592-0.31744 335.01184-0.08192 502.51776-0.11264 4.8128-0.3072 9.71776-0.47104 14.52032-1.2288-0.45056-52.51072-0.1024-105.02144-0.2048-157.52192 32.57344 0.3072 65.15712-0.65536 97.72032 0.48128 52.55168 2.12992 100.70016 42.41408 112.20992 93.70624 4.44416 18.0736 2.7648 36.89472 3.09248 55.31648-0.03072 223.58016-0.1024 447.15008 0.03072 670.73024 1.6896 38.79936-18.7392 77.13792-50.18624 99.38944-22.99904 17.408-52.50048 23.95136-80.93696 23.5008-230.41024-0.13312-460.82048 0.16384-691.22048-0.14336-38.18496-0.34816-75.76576-19.1488-98.17088-50.19648-12.17536-17.152-20.80768-37.18144-22.7328-58.25536-1.65888-18.03264-0.77824-36.16768-0.95232-54.24128-0.01024-211.63008 0.06144-423.24992-0.03072-634.88 0.27648-16.16896-1.14688-32.6656 2.60096-48.54784 7.56736-34.14016 30.0032-64.8704 60.95872-81.42848m51.6096 44.4928c-31.11936 3.05152-57.52832 32.49152-55.76704 63.95904 0.0512 232.12032 0.03072 464.25088 0.01024 696.3712-1.18784 32.4096 27.19744 62.1056 59.38176 63.39584 232.12032 0.17408 464.24064-0.03072 696.36096 0.1024 9.53344-0.03072 19.22048-0.34816 28.34432-3.46112 24.65792-8.71424 42.8544-33.67936 42.28096-60.04736 0.04096-228.70016 0.01024-457.41056 0.02048-686.11072 0.36864-16.67072-1.75104-34.49856-12.35968-48.05632-7.24992-11.13088-18.8416-18.50368-31.01696-23.21408-16.57856-6.144-34.63168-2.70336-51.85536-3.46112 0 24.91392-0.0512 49.82784 0.07168 74.74176-0.16384 10.77248 0.256 21.6576-1.56672 32.32768-5.15072 28.83584-32.57344 52.00896-61.97248 51.59936-167.26016 0.13312-334.53056-0.04096-501.79072 0.08192-11.02848 0.02048-22.53824-0.512-32.72704-5.2224-23.33696-10.38336-39.96672-35.54304-38.00064-61.36832 0.09216-30.73024 0.1024-61.45024 0.08192-92.17024-13.16864 0.03072-26.35776-0.45056-39.49568 0.53248z" p-id="3067"></path><path d="M590.11072 482.59072c6.72768-7.28064 17.2032-9.78944 26.7776-9.07264 15.47264 1.61792 24.71936 15.59552 35.1744 25.3952 7.63904 6.7072 10.6496 17.2032 10.16832 27.09504-1.0752 9.5744-7.10656 17.58208-13.71136 24.19712-25.23136 25.06752-50.432 50.176-75.4688 75.44832 27.71968 28.0576 55.77728 55.78752 83.61984 83.72224 7.08608 6.88128 10.32192 16.80384 9.65632 26.55232-1.3312 11.89888-10.16832 20.84864-18.23744 28.89728-7.18848 7.14752-15.27808 15.02208-25.9072 16.01536-12.47232 2.38592-24.39168-4.84352-32.67584-13.53728-26.18368-26.51136-52.736-52.65408-78.8992-79.17568-24.85248 24.5248-49.41824 49.32608-74.09664 74.02496-5.96992 5.46816-12.15488 11.74528-20.4288 13.35296-9.0112 2.46784-19.32288 1.19808-26.7264-4.77184-8.26368-6.27712-15.4112-13.90592-22.39488-21.52448-11.76576-11.84768-11.18208-33.024 0.89088-44.45184 26.53184-26.59328 53.22752-53.05344 79.68768-79.73888-23.33696-22.87616-46.19264-46.25408-69.49888-69.1712-6.7584-6.30784-12.76928-14.75584-12.36992-24.43264-0.12288-5.82656-0.1024-12.15488 3.1232-17.2544 6.656-10.72128 15.90272-19.6608 25.78432-27.40224 12.544-9.87136 32.04096-8.192 42.86464 3.52256 24.35072 23.90016 48.14848 48.37376 72.50944 72.27392 26.89024-26.48064 53.31968-53.43232 80.15872-79.96416z" p-id="3068"></path></svg>