<?xml version="1.0" standalone="no"?><!DOCTYPE svg PUBLIC "-//W3C//DTD SVG 1.1//EN" "http://www.w3.org/Graphics/SVG/1.1/DTD/svg11.dtd"><svg t="1678240396900" class="icon" viewBox="0 0 1024 1024" version="1.1" xmlns="http://www.w3.org/2000/svg" p-id="6976" xmlns:xlink="http://www.w3.org/1999/xlink" width="128" height="128"><path d="M621.8 113.9H401.3c-27.1 0-48.7 22.2-48.7 49.7 0 27.5 21.7 49.8 48.7 49.8h221.9c25.7 0 47.3-22.3 47.3-49.8 0-27.5-21.6-49.7-48.7-49.7z" p-id="6977" fill="#ffffff"></path><path d="M783.6 164.3h-68c0 58.8-31.4 99.3-85 99.3h-255c-53.4 0-68-50.6-68-99.3h-76.5c-35.8 0-59.5 23.7-59.5 63.8V841c0 45 22.9 68.1 63.7 68.1h552.5c34.1 0 63.7-22.2 63.7-68.1V228.1c0.1-44.3-27.9-63.8-67.9-63.8zM548.8 666.1l-73.3 78.4c-4.5 4.6-10.7 7.4-17 7.4-5.8 0-11.6-2.3-15.9-6.3-9.4-8.9-9.9-23.7-1-33l35.2-37.7H333.2v-0.1l-7.7 0.1c-12.9 0-23.3-10.4-23.3-23.3s10.5-23.3 23.3-23.3H476l-37.5-36.9c-9.2-9-9.3-23.9-0.3-33 4.4-4.5 10.3-7 16.6-7 6.2 0 12 2.4 16.4 6.7l76.9 75.5c9.1 8.7 9.3 23.3 0.7 32.5z m167.5 71.1c0 21.3-17.5 38.6-39.1 38.6H586c-13.2 0-23.9-10.6-23.9-23.6 0-13 10.7-23.6 23.9-23.6h82.3V543.3L507.5 435.2l-163.3 114v12.6c0 13-10.7 23.6-23.9 23.6s-23.9-10.6-23.9-23.6v-9.5l-0.1-7.7c0-12.4 6.1-24.1 16.5-31.3l171.9-120.1c6.7-4.6 14.4-7.1 22.7-7.1 7.9 0 15.5 2.3 22.1 6.7L699.3 507c10.7 7.2 17 19.1 17 31.9v198.3z" p-id="6978" fill="#ffffff"></path></svg>