<?xml version="1.0" standalone="no"?><!DOCTYPE svg PUBLIC "-//W3C//DTD SVG 1.1//EN" "http://www.w3.org/Graphics/SVG/1.1/DTD/svg11.dtd"><svg t="1678240416370" class="icon" viewBox="0 0 1024 1024" version="1.1" xmlns="http://www.w3.org/2000/svg" p-id="7467" xmlns:xlink="http://www.w3.org/1999/xlink" width="128" height="128"><path d="M621.8 113.9H401.3c-27.1 0-48.7 22.2-48.7 49.7 0 27.5 21.7 49.8 48.7 49.8h221.9c25.7 0 47.3-22.3 47.3-49.8 0-27.5-21.6-49.7-48.7-49.7z" p-id="7468" fill="#ffffff"></path><path d="M784 163.7h-68.1c0 58.9-31.4 99.5-85.1 99.5H375.3c-53.5 0-68.1-50.7-68.1-99.5h-76.6c-35.9 0-59.6 23.8-59.6 64v613.9c0 45.1 23 68.2 63.9 68.2h553.4c34.1 0 63.9-22.2 63.9-68.2v-614c-0.1-44.4-28.1-63.9-68.2-63.9zM427.1 510.8l61.6-79.1c4.5-5.8 11.3-9.1 18.6-9.1 7.2 0 13.9 3.2 18.4 8.8l63.8 79c5.8 7.2 6.9 16.8 2.9 25s-12.1 13.4-21.3 13.4l-40.4-0.1v85.8c0 13-10.6 23.6-23.6 23.6-13 0-23.6-10.6-23.6-23.6v-85.8l-37.9 0.1c-9 0-17-5-21-13.2-4.1-8-3.1-17.6 2.5-24.8z m212.2 220.7H374.7c-40.1 0-72.7-32.6-72.7-72.7V481.2c0-40.1 32.6-72.7 72.7-72.7h8.6c13 0 23.6 10.6 23.6 23.6 0 13-10.6 23.6-23.6 23.6h-8.6c-15.8 0-25.6 13.3-25.6 25.6v177.6c0 15.8 13.3 25.6 25.6 25.6h264.4c15.8 0 25.6-13.3 25.6-25.6V481.2c0-14.1-11.5-25.6-25.6-25.6h-2c-13 0-23.6-10.6-23.6-23.6 0-13 10.6-23.6 23.6-23.6h2c40.1 0 72.7 32.6 72.7 72.7v170.5l0.1 7.2c0.1 40-32.5 72.7-72.6 72.7z" p-id="7469" fill="#ffffff"></path></svg>