<?xml version="1.0" standalone="no"?><!DOCTYPE svg PUBLIC "-//W3C//DTD SVG 1.1//EN" "http://www.w3.org/Graphics/SVG/1.1/DTD/svg11.dtd"><svg t="1652075220920" class="icon" viewBox="0 0 1024 1024" version="1.1" xmlns="http://www.w3.org/2000/svg" p-id="9550" xmlns:xlink="http://www.w3.org/1999/xlink" width="200" height="200"><defs><style type="text/css">@font-face { font-family: feedback-iconfont; src: url("//at.alicdn.com/t/font_1031158_u69w8yhxdu.woff2?t=1630033759944") format("woff2"), url("//at.alicdn.com/t/font_1031158_u69w8yhxdu.woff?t=1630033759944") format("woff"), url("//at.alicdn.com/t/font_1031158_u69w8yhxdu.ttf?t=1630033759944") format("truetype"); }
</style></defs><path d="M785.92 0a59.733333 59.733333 0 0 1 48.896 25.344l135.68 192.256a59.733333 59.733333 0 0 1 10.837333 34.474667V964.266667a59.733333 59.733333 0 0 1-59.733333 59.733333H102.4a59.733333 59.733333 0 0 1-59.733333-59.733333V253.781333a59.733333 59.733333 0 0 1 10.154666-33.28L183.04 26.453333A59.733333 59.733333 0 0 1 232.618667 0h553.386666zM896 314.624h-768l0.085333 623.957333h768l-0.085333-623.957333zM602.026667 756.48v85.333333h-356.693334v-85.333333h356.693334z m176.64-164.864v85.333333h-533.333334v-85.333333h533.333334z m0-162.56v85.333333h-533.333334v-85.333333h533.333334zM772.693333 85.333333H246.272L149.589333 229.290667h724.565334L772.693333 85.248z" p-id="9551"></path></svg>