<?xml version="1.0" standalone="no"?><!DOCTYPE svg PUBLIC "-//W3C//DTD SVG 1.1//EN" "http://www.w3.org/Graphics/SVG/1.1/DTD/svg11.dtd"><svg t="1652075075487" class="icon" viewBox="0 0 1024 1024" version="1.1" xmlns="http://www.w3.org/2000/svg" p-id="8562" xmlns:xlink="http://www.w3.org/1999/xlink" width="200" height="200"><defs><style type="text/css">@font-face { font-family: feedback-iconfont; src: url("//at.alicdn.com/t/font_1031158_u69w8yhxdu.woff2?t=1630033759944") format("woff2"), url("//at.alicdn.com/t/font_1031158_u69w8yhxdu.woff?t=1630033759944") format("woff"), url("//at.alicdn.com/t/font_1031158_u69w8yhxdu.ttf?t=1630033759944") format("truetype"); }
</style></defs><path d="M0 0m128 0l768 0q128 0 128 128l0 768q0 128-128 128l-768 0q-128 0-128-128l0-768q0-128 128-128Z" fill="#70B3F9" p-id="8563"></path><path d="M812 724.64H414.4a93.12 93.12 0 0 0-65.92-65.92l1.6-313.12a82.72 82.72 0 0 0-24-58.4l-97.28-97.28A23.68 23.68 0 0 0 195.36 224l97.28 96a34.88 34.88 0 0 1 10.08 24.64l-1.6 313.28a92.8 92.8 0 1 0 113.28 113.44h397.6a23.68 23.68 0 1 0 0-48zM324.8 793.76a45.44 45.44 0 1 1 45.44-45.44 45.44 45.44 0 0 1-45.44 45.44z m0 0" fill="#FFFFFF" p-id="8564"></path><path d="M702.72 292H474.08a78.4 78.4 0 0 0-78.4 78.4v228.64a78.4 78.4 0 0 0 78.4 78.4h228.64a78.4 78.4 0 0 0 78.4-78.4V370.4a78.4 78.4 0 0 0-78.4-78.4z m-40 145.6h-148.8a23.68 23.68 0 0 1 0-48h148.96a23.68 23.68 0 1 1 0 48z" fill="#FFFFFF" p-id="8565"></path></svg>