<?xml version="1.0" standalone="no"?><!DOCTYPE svg PUBLIC "-//W3C//DTD SVG 1.1//EN" "http://www.w3.org/Graphics/SVG/1.1/DTD/svg11.dtd"><svg t="1661496912387" class="icon" viewBox="0 0 1024 1024" version="1.1" xmlns="http://www.w3.org/2000/svg" p-id="9787" xmlns:xlink="http://www.w3.org/1999/xlink" width="128" height="128"><path d="M512 655.936c-74.992 0-136-61.008-136-136s61.008-136 136-136 136 61.008 136 136-61.008 136-136 136z m0-256c-66.176 0-120 53.824-120 120s53.824 120 120 120 120-53.824 120-120-53.824-120-120-120z" fill="#ffffff" p-id="9788"></path><path d="M600.752 445.92l9.536-7.936A128 128 0 0 0 384 519.936h12.08a320.08 320.08 0 0 0 204.672-74.016z" fill="#ffffff" p-id="9789"></path><path d="M396.08 527.936H384a8 8 0 0 1-8-8c0-74.992 61.008-136 136-136a135.68 135.68 0 0 1 104.432 48.928 8 8 0 0 1-1.024 11.28l-9.536 7.936a328.688 328.688 0 0 1-209.792 75.856z m-3.808-16h3.824a312.64 312.64 0 0 0 199.552-72.16l3.184-2.656a119.68 119.68 0 0 0-86.816-37.184c-63.488 0-115.616 49.536-119.744 112zM512.064 743.408a8 8 0 0 1-6.64-3.536l-48.048-71.392a8.096 8.096 0 0 1-1.36-4.464l-0.016-25.52a8 8 0 0 1 11.024-7.424 119.888 119.888 0 0 0 90 0.096 7.984 7.984 0 0 1 10.992 7.408L568 663.84c0 1.6-0.464 3.136-1.344 4.464l-47.952 71.568a7.984 7.984 0 0 1-6.64 3.536zM472 661.568l40.032 59.488 39.968-59.648v-11.504a135.808 135.808 0 0 1-80-0.08v11.744zM624 944a8 8 0 0 1-8-8v-112a8 8 0 0 1 16 0v112a8 8 0 0 1-8 8zM400 944a8 8 0 0 1-8-8v-112a8 8 0 0 1 16 0v112a8 8 0 0 1-8 8z" fill="#ffffff" p-id="9790"></path><path d="M552 928l-39.84 40L472 928 496 735.424h32z" fill="#ffffff" p-id="9791"></path><path d="M512.16 976a7.952 7.952 0 0 1-5.648-2.336l-40.16-40a8.048 8.048 0 0 1-2.288-6.672l24-192.592a8 8 0 0 1 7.936-7.008h32a8 8 0 0 1 7.936 7.008l24 192.592a8 8 0 0 1-2.272 6.64l-39.84 40a7.936 7.936 0 0 1-5.664 2.368z m-31.744-50.896l31.712 31.584 31.44-31.568-22.64-181.712h-17.872l-22.64 181.696z" fill="#ffffff" p-id="9792"></path><path d="M512.064 743.408H456a8.032 8.032 0 0 1-7.968-8.896l8-71.392a8 8 0 0 1 14.592-3.568l41.408 61.52 41.296-61.648a8 8 0 0 1 14.592 3.552l8 71.552a8 8 0 0 1-7.968 8.896h-55.888v-0.016z m14.992-16h32l-4.576-40.944-27.424 40.944z m-62.112 0h32.08l-27.504-40.864-4.576 40.864z" fill="#ffffff" p-id="9793"></path><path d="M704 944a8 8 0 0 1-8-8v-156.048a72.064 72.064 0 0 0-42.704-65.776l-90.384-40.272-44.192 65.968a8 8 0 0 1-13.28 0.016l-44.304-65.824-90.352 40.144a72.032 72.032 0 0 0-42.768 65.792v156a8 8 0 0 1-16 0v-156a88.032 88.032 0 0 1 52.272-80.416l96.496-42.88a8.016 8.016 0 0 1 9.888 2.848l41.392 61.52 41.312-61.664a8 8 0 0 1 9.904-2.848l96.544 43.008a88.08 88.08 0 0 1 52.192 80.384V936A8.032 8.032 0 0 1 704 944zM208 557.008c-74.992 0-136-61.008-136-136s61.008-136 136-136 136 61.008 136 136-61.008 136-136 136z m0-256c-66.176 0-120 53.824-120 120s53.824 120 120 120 120-53.824 120-120-53.824-120-120-120z" fill="#ffffff" p-id="9794"></path><path d="M296.752 347.008l9.536-7.936A128 128 0 0 0 80 421.024h12.08c74.784 0 147.2-26.192 204.672-74.016z" fill="#ffffff" p-id="9795"></path><path d="M92.08 429.008H80a8 8 0 0 1-8-8c0-74.992 61.008-136 136-136a135.728 135.728 0 0 1 104.432 48.928 8 8 0 0 1-1.024 11.28l-9.536 7.936a328.592 328.592 0 0 1-209.792 75.856z m-3.808-16h3.824c72.752 0 143.616-25.632 199.552-72.16l3.168-2.64A119.68 119.68 0 0 0 208 301.008c-63.472 0-115.6 49.552-119.728 112z m208.48-66h0.16-0.16zM208.064 644.512a8 8 0 0 1-6.64-3.536l-48.048-71.408a7.936 7.936 0 0 1-1.376-4.464v-25.52a8 8 0 0 1 11.024-7.424 119.84 119.84 0 0 0 89.984 0.112 7.968 7.968 0 0 1 11.008 7.408l0.016 25.264c0 1.6-0.464 3.136-1.344 4.464l-47.952 71.568a8.112 8.112 0 0 1-6.672 3.536zM168 562.656l40.032 59.504 39.968-59.648v-11.504a135.808 135.808 0 0 1-80-0.08v11.728zM96 845.088a8 8 0 0 1-8-8v-112a8 8 0 0 1 16 0v112a8 8 0 0 1-8 8z" fill="#ffffff" p-id="9796"></path><path d="M208.064 644.512H152a8.032 8.032 0 0 1-7.968-8.896l8-71.408a8 8 0 0 1 14.592-3.568l41.408 61.52 41.296-61.664a8.016 8.016 0 0 1 14.592 3.552l8 71.552a8 8 0 0 1-7.968 8.896h-55.888v0.016z m14.976-16h32l-4.576-40.944-27.424 40.944z m-62.096 0h32.08l-27.504-40.864-4.576 40.864z" fill="#ffffff" p-id="9797"></path><path d="M16 845.088a8 8 0 0 1-8-8v-156a88.08 88.08 0 0 1 52.272-80.416l96.496-42.88a8.016 8.016 0 0 1 9.888 2.848l41.392 61.52 41.312-61.664a8.032 8.032 0 0 1 9.904-2.848l96.544 43.008a87.84 87.84 0 0 1 48.688 55.984 8 8 0 1 1-15.376 4.432 71.872 71.872 0 0 0-39.824-45.808l-90.384-40.272-44.192 65.968a8 8 0 0 1-13.28 0.016l-44.32-65.84-90.352 40.144A72.096 72.096 0 0 0 24 681.088v156a8 8 0 0 1-8 8zM816 557.008c-74.992 0-136-61.008-136-136s61.008-136 136-136 136 61.008 136 136-61.008 136-136 136z m0-256c-66.176 0-120 53.824-120 120s53.824 120 120 120 120-53.824 120-120-53.824-120-120-120z" fill="#ffffff" p-id="9798"></path><path d="M904.752 347.008l9.536-7.936A128 128 0 0 0 688 421.024h12.08c74.784 0 147.2-26.192 204.672-74.016z" fill="#ffffff" p-id="9799"></path><path d="M700.08 429.008H688a8 8 0 0 1-8-8c0-74.992 61.008-136 136-136a135.728 135.728 0 0 1 104.432 48.928 8 8 0 0 1-1.024 11.28l-9.536 7.936a328.592 328.592 0 0 1-209.792 75.856z m-3.808-16h3.824c72.752 0 143.616-25.632 199.552-72.16l3.168-2.64A119.68 119.68 0 0 0 816 301.008c-63.472 0-115.6 49.552-119.728 112z m208.48-66h0.16-0.16zM815.936 644.512a8 8 0 0 1-6.656-3.552l-47.952-71.568a8.032 8.032 0 0 1-1.344-4.464l0.016-25.264a8 8 0 0 1 11.008-7.408 119.84 119.84 0 0 0 89.984-0.112 8.032 8.032 0 0 1 11.024 7.424l-0.016 25.536c0 1.584-0.48 3.136-1.36 4.464l-48.048 71.408a8.048 8.048 0 0 1-6.656 3.536zM776 562.512l39.968 59.648 40.032-59.504v-11.728a135.936 135.936 0 0 1-80 0.08v11.504zM928 845.088a8 8 0 0 1-8-8v-112a8 8 0 0 1 16 0v112a8 8 0 0 1-8 8z" fill="#ffffff" p-id="9800"></path><path d="M815.936 644.512H760a8.032 8.032 0 0 1-7.968-8.896l8-71.552a8.016 8.016 0 0 1 14.592-3.552l41.296 61.664 41.408-61.52a8.016 8.016 0 0 1 14.592 3.568l8 71.408a8 8 0 0 1-7.968 8.896h-56.016v-0.016z m15.04-16h32.08l-4.576-40.864-27.504 40.864z m-62.032 0h32l-27.424-40.944-4.576 40.944z" fill="#ffffff" p-id="9801"></path><path d="M1008 845.088a8 8 0 0 1-8-8v-156a72.048 72.048 0 0 0-42.768-65.792l-90.352-40.144-44.304 65.84a7.968 7.968 0 0 1-13.28-0.016l-44.192-65.968-90.384 40.272a71.872 71.872 0 0 0-39.824 45.808 8 8 0 0 1-15.376-4.432 87.84 87.84 0 0 1 48.688-55.984l96.544-43.008a8.032 8.032 0 0 1 9.904 2.848l41.312 61.664 41.392-61.52a8.064 8.064 0 0 1 9.888-2.848l96.496 42.88a88.096 88.096 0 0 1 52.272 80.416v156a8 8 0 0 1-8.016 7.984zM224 944H64a8 8 0 0 1 0-16h160a8 8 0 0 1 0 16zM32 944H16a8 8 0 0 1 0-16h16a8 8 0 0 1 0 16zM960 944H800a8 8 0 0 1 0-16h160a8 8 0 0 1 0 16zM1008 944h-16a8 8 0 0 1 0-16h16a8 8 0 0 1 0 16z" fill="#ffffff" p-id="9802"></path><path d="M492 176h-64a8 8 0 0 1 0-16h64a8 8 0 0 1 0 16z" fill="#ffffff" p-id="9803"></path><path d="M596 96h-64a8 8 0 0 1 0-16h64a8 8 0 0 1 0 16z" fill="#ffffff" p-id="9804"></path><path d="M564 128a8 8 0 0 1-8-8v-64a8 8 0 0 1 16 0v64a8 8 0 0 1-8 8z" fill="#ffffff" p-id="9805"></path><path d="M460 208a8 8 0 0 1-8-8v-64a8 8 0 0 1 16 0v64a8 8 0 0 1-8 8z" fill="#ffffff" p-id="9806"></path></svg>