<?xml version="1.0" standalone="no"?><!DOCTYPE svg PUBLIC "-//W3C//DTD SVG 1.1//EN" "http://www.w3.org/Graphics/SVG/1.1/DTD/svg11.dtd"><svg t="1652076439391" class="icon" viewBox="0 0 1024 1024" version="1.1" xmlns="http://www.w3.org/2000/svg" p-id="21032" xmlns:xlink="http://www.w3.org/1999/xlink" width="200" height="200"><defs><style type="text/css">@font-face { font-family: feedback-iconfont; src: url("//at.alicdn.com/t/font_1031158_u69w8yhxdu.woff2?t=1630033759944") format("woff2"), url("//at.alicdn.com/t/font_1031158_u69w8yhxdu.woff?t=1630033759944") format("woff"), url("//at.alicdn.com/t/font_1031158_u69w8yhxdu.ttf?t=1630033759944") format("truetype"); }
</style></defs><path d="M179.2 281.6v481.28c0 10.24 5.12 20.48 15.36 20.48h117.76V250.88l-117.76 10.24c-10.24 0-15.36 10.24-15.36 20.48z m87.04 414.72h-46.08v-25.6h46.08v25.6z m0-76.8h-46.08v-25.6h46.08v25.6z m0-81.92h-46.08V512h46.08v25.6z m-25.6-204.8c15.36 0 30.72 15.36 30.72 30.72s-15.36 30.72-30.72 30.72-30.72-15.36-30.72-30.72c5.12-15.36 15.36-30.72 30.72-30.72zM25.6 296.96v465.92c0 10.24 5.12 20.48 15.36 20.48h117.76V266.24l-117.76 10.24c-10.24 0-15.36 10.24-15.36 20.48z m87.04 399.36H66.56v-25.6h46.08v25.6z m0-76.8H66.56v-25.6h46.08v25.6z m0-81.92H66.56V512h46.08v25.6zM87.04 358.4c15.36 0 30.72 15.36 30.72 30.72s-15.36 30.72-30.72 30.72-30.72-15.36-30.72-30.72c5.12-15.36 15.36-30.72 30.72-30.72zM450.56 240.64L332.8 250.88v532.48h117.76c5.12 0 15.36-10.24 15.36-20.48V261.12c-5.12-10.24-10.24-20.48-15.36-20.48z m-25.6 455.68h-51.2v-25.6h46.08v25.6z m0-76.8h-51.2v-25.6h46.08v25.6z m0-81.92h-51.2V512h46.08v25.6z m-25.6-174.08c-15.36 0-30.72-15.36-30.72-30.72s15.36-30.72 30.72-30.72 30.72 15.36 30.72 30.72-15.36 30.72-30.72 30.72zM568.32 768l-87.04 15.36V245.76l87.04 25.6V768zM675.84 747.52l-87.04 15.36V281.6l87.04 25.6v440.32zM783.36 732.16l-87.04 15.36V317.44l87.04 25.6v389.12zM890.88 711.68l-87.04 15.36V353.28l87.04 25.6v332.8zM998.4 691.2l-87.04 15.36V389.12l87.04 30.72v271.36z" p-id="21033"></path></svg>