<?xml version="1.0" standalone="no"?><!DOCTYPE svg PUBLIC "-//W3C//DTD SVG 1.1//EN" "http://www.w3.org/Graphics/SVG/1.1/DTD/svg11.dtd"><svg t="1652075824405" class="icon" viewBox="0 0 1024 1024" version="1.1" xmlns="http://www.w3.org/2000/svg" p-id="12958" xmlns:xlink="http://www.w3.org/1999/xlink" width="200" height="200"><defs><style type="text/css">@font-face { font-family: feedback-iconfont; src: url("//at.alicdn.com/t/font_1031158_u69w8yhxdu.woff2?t=1630033759944") format("woff2"), url("//at.alicdn.com/t/font_1031158_u69w8yhxdu.woff?t=1630033759944") format("woff"), url("//at.alicdn.com/t/font_1031158_u69w8yhxdu.ttf?t=1630033759944") format("truetype"); }
</style></defs><path d="M393.671111 880.071111h-56.888889a56.888889 56.888889 0 0 1 0-113.777778h144.497778l94.435556-95.004444h-238.933334a56.888889 56.888889 0 0 1 0-113.777778h352.142222l50.631112-49.493333 43.804444-43.804445-246.897778-211.057777a36.977778 36.977778 0 0 0-48.355555 0l-341.333334 292.977777a30.151111 30.151111 0 0 0-10.24 22.755556v430.08a24.462222 24.462222 0 0 0 22.755556 25.031111h205.937778zM611.555556 1024h253.155555a24.462222 24.462222 0 0 0 23.893333-25.031111v-252.586667z" fill="#5F77FD" p-id="12959"></path><path d="M539.875556 161.564444l294.115555 251.448889 68.266667-68.266666 117.191111 117.191111a65.422222 65.422222 0 0 0-18.773333-72.817778L568.888889 22.186667a91.022222 91.022222 0 0 0-113.777778 0L22.755556 389.12a65.422222 65.422222 0 0 0 38.684444 113.777778 56.888889 56.888889 0 0 0 38.684444-14.222222l384-327.111112a43.235556 43.235556 0 0 1 55.751112 0z" fill="#5F77FD" p-id="12960"></path><path d="M416.995556 1024l151.893333-30.151111 333.937778-333.937778-121.742223-121.173333-333.368888 333.937778z m394.24-515.982222l91.022222-91.022222L1024 538.168889l-91.022222 91.022222z m0 0" fill="#5F77FD" p-id="12961"></path></svg>