<?xml version="1.0" standalone="no"?><!DOCTYPE svg PUBLIC "-//W3C//DTD SVG 1.1//EN" "http://www.w3.org/Graphics/SVG/1.1/DTD/svg11.dtd"><svg t="1652075548100" class="icon" viewBox="0 0 1085 1024" version="1.1" xmlns="http://www.w3.org/2000/svg" p-id="11657" xmlns:xlink="http://www.w3.org/1999/xlink" width="211.9140625" height="200"><defs><style type="text/css">@font-face { font-family: feedback-iconfont; src: url("//at.alicdn.com/t/font_1031158_u69w8yhxdu.woff2?t=1630033759944") format("woff2"), url("//at.alicdn.com/t/font_1031158_u69w8yhxdu.woff?t=1630033759944") format("woff"), url("//at.alicdn.com/t/font_1031158_u69w8yhxdu.ttf?t=1630033759944") format("truetype"); }
</style></defs><path d="M0.162355 191.481858v643.5496c-0.124888-1.486171-0.162355-2.972342-0.149866-4.483492V195.328419c-0.012489-1.323816 0.037467-2.597677 0.149866-3.846561zM527.278558 0.21537h-13.113275a99.910669 99.910669 0 0 1 13.113275 0zM938.610784 426.521708V234.106247L572.150938 121.044836v783.312137l366.484824-113.061411V665.870205a17.908988 17.908988 0 0 1 17.921476-18.346096h66.552995a17.908988 17.908988 0 0 1 17.921476 18.346096v164.677761a51.61635 51.61635 0 0 1-36.692193 50.342489l-437.309 134.879404a158.832987 158.832987 0 0 1-93.428965 0l-436.88438-134.879404A51.991015 51.991015 0 0 1 0.174844 835.031458V156.962722A156.747352 156.747352 0 0 1 156.922195 0.21537h370.381341a103.382565 103.382565 0 0 1 22.667233 3.933983l454.293814 140.362001a52.890211 52.890211 0 0 1 36.692193 50.342489v231.667865h35.842953a8.517385 8.517385 0 0 1 7.668144 8.529873 4.633357 4.633357 0 0 1 0 3.421941l-88.308543 127.985567a8.042809 8.042809 0 0 1-6.381794 2.497767 8.130231 8.130231 0 0 1-5.99464-3.297052L895.099688 437.611792a8.517385 8.517385 0 0 1 3.409451-11.090084z" p-id="11658"></path><path d="M738.939311 493.074702l-127.985567 16.235484a18.333608 18.333608 0 0 0-18.346097 18.333608V659.038813a18.733251 18.733251 0 0 0 18.346097 18.733251l127.985567-24.74038a18.346097 18.346097 0 0 0 18.346097-18.73325v-122.39057a18.733251 18.733251 0 0 0-18.346097-18.833162z m7.256013 176.629575L618.209756 696.130649a17.933965 17.933965 0 0 0-17.921476 18.346097v130.558267a18.346097 18.346097 0 0 0 17.921476 18.733251l127.985568-35.418332a18.333608 18.333608 0 0 0 18.346096-18.333608v-121.603774a18.733251 18.733251 0 0 0-18.346096-18.708273z m168.948942 95.564556v-110.064092a16.235484 16.235484 0 0 0-14.986601-15.361265l-105.705488 22.567322a16.235484 16.235484 0 0 0-14.924156 17.484368v117.757212a16.235484 16.235484 0 0 0 14.924156 15.361266l105.817888-30.722531a16.235484 16.235484 0 0 0 14.874201-17.02228z" p-id="11659"></path></svg>