<?xml version="1.0" standalone="no"?><!DOCTYPE svg PUBLIC "-//W3C//DTD SVG 1.1//EN" "http://www.w3.org/Graphics/SVG/1.1/DTD/svg11.dtd"><svg t="1652075590714" class="icon" viewBox="0 0 1024 1024" version="1.1" xmlns="http://www.w3.org/2000/svg" p-id="11950" xmlns:xlink="http://www.w3.org/1999/xlink" width="200" height="200"><defs><style type="text/css">@font-face { font-family: feedback-iconfont; src: url("//at.alicdn.com/t/font_1031158_u69w8yhxdu.woff2?t=1630033759944") format("woff2"), url("//at.alicdn.com/t/font_1031158_u69w8yhxdu.woff?t=1630033759944") format("woff"), url("//at.alicdn.com/t/font_1031158_u69w8yhxdu.ttf?t=1630033759944") format("truetype"); }
</style></defs><path d="M696.618667 468.608c59.733333 0 110.933333 46.933333 115.2 106.666667v46.933333h21.333333c34.133333 0 59.733333 25.6 64 59.733333V844.074667c0 34.133333-29.866667 64-64 64h-268.8c-34.133333 0-64-29.866667-64-64v-157.866667c0-34.133333 29.866667-64 64-64h21.333333v-38.4c-4.266667-64 46.933333-115.2 110.933334-115.2z m-123.733334-337.066667l8.533334 4.266667 260.266666 200.533333c21.333333 17.066667 38.4 46.933333 38.4 72.533334v55.466666c0 25.6-17.066667 42.666667-42.666666 42.666667-21.333333 0-38.4-17.066667-42.666667-38.4V417.408c0-4.266667 0-8.533333-4.266667-12.8l-4.266666-4.266667-260.266667-196.266666c-4.266667-4.266667-8.533333-4.266667-12.8-4.266667h-4.266667l-260.266666 200.533333c-4.266667 4.266667-8.533333 8.533333-8.533334 12.8v388.266667c0 8.533333 4.266667 17.066667 12.8 17.066667h170.666667c25.6 0 42.666667 17.066667 42.666667 42.666666 0 21.333333-17.066667 38.4-38.4 42.666667h-170.666667c-55.466667 0-98.133333-42.666667-102.4-93.866667v-392.533333c0-29.866667 12.8-59.733333 34.133333-76.8l4.266667-4.266667 260.266667-200.533333c38.4-25.6 81.066667-29.866667 119.466666-4.266667z m238.933334 576h-230.4v115.2h226.133333v-115.2z m-115.2-153.6c-12.8 0-25.6 8.533333-29.866667 25.6v42.666667h55.466667v-38.4c4.266667-17.066667-8.533333-29.866667-25.6-29.866667z m-115.2-183.466666c25.6 0 42.666667 17.066667 42.666666 42.666666 0 21.333333-17.066667 38.4-38.4 42.666667h-115.2c-25.6 0-42.666667-17.066667-42.666666-42.666667 0-21.333333 17.066667-38.4 38.4-42.666666h115.2z" fill="#005EFF" p-id="11951"></path></svg>