<?xml version="1.0" standalone="no"?><!DOCTYPE svg PUBLIC "-//W3C//DTD SVG 1.1//EN" "http://www.w3.org/Graphics/SVG/1.1/DTD/svg11.dtd"><svg t="1652075478708" class="icon" viewBox="0 0 1024 1024" version="1.1" xmlns="http://www.w3.org/2000/svg" p-id="11354" xmlns:xlink="http://www.w3.org/1999/xlink" width="200" height="200"><defs><style type="text/css">@font-face { font-family: feedback-iconfont; src: url("//at.alicdn.com/t/font_1031158_u69w8yhxdu.woff2?t=1630033759944") format("woff2"), url("//at.alicdn.com/t/font_1031158_u69w8yhxdu.woff?t=1630033759944") format("woff"), url("//at.alicdn.com/t/font_1031158_u69w8yhxdu.ttf?t=1630033759944") format("truetype"); }
</style></defs><path d="M866.289636 1023.687111H157.71008a44.316444 44.316444 0 0 1-44.231111-44.430222V177.92a44.487111 44.487111 0 0 1 44.373333-44.600889h88.604445V177.777778a44.316444 44.316444 0 0 0 44.202666 44.458666h442.823111a44.316444 44.316444 0 0 0 44.202667-44.458666V133.319111h88.604445a44.344889 44.344889 0 0 1 44.231111 44.600889v801.336889a44.316444 44.316444 0 0 1-44.231111 44.430222z m-168.618667-522.666667q-23.210667-22.072889-45.198222-45.312c-13.966222-14.677333-29.496889-23.409778-46.677334-7.338666-16.270222 15.217778-11.719111 32.142222 6.087111 50.631111H374.229191a28.444444 28.444444 0 0 0-33.592889 30.236444 28.188444 28.188444 0 0 0 32.426667 28.984889h302.193778a30.976 30.976 0 0 0 31.488-19.171555 32.483556 32.483556 0 0 0-9.073778-38.030223z m-17.066667 136.362667c-5.688889-0.398222-11.377778-0.170667-17.066666-0.170667h-240.810667a447.800889 447.800889 0 0 0-49.066667 0.711112 30.264889 30.264889 0 0 0-24.263111 48.355555 609.649778 609.649778 0 0 0 63.459556 64.853333 25.201778 25.201778 0 0 0 33.905777-0.540444 29.610667 29.610667 0 0 0 9.301334-35.413333 36.437333 36.437333 0 0 1-8.846222-18.005334h232.732444a28.444444 28.444444 0 0 0 32.341333-29.297777 29.155556 29.155556 0 0 0-31.800889-30.492445zM711.18208 177.92H312.703858a22.357333 22.357333 0 0 1-22.186667-22.300444V111.160889a22.215111 22.215111 0 0 1 22.186667-22.300445h110.648889a88.576 88.576 0 1 1 177.152 0H711.18208a22.215111 22.215111 0 0 1 22.186667 22.300445v44.458667a22.186667 22.186667 0 0 1-22.186667 22.300444z m-199.111111-111.331556a22.300444 22.300444 0 1 0 22.186667 22.272 22.186667 22.186667 0 0 0-22.186667-22.272z" fill="#46B692" p-id="11355"></path></svg>