<?xml version="1.0" standalone="no"?><!DOCTYPE svg PUBLIC "-//W3C//DTD SVG 1.1//EN" "http://www.w3.org/Graphics/SVG/1.1/DTD/svg11.dtd"><svg t="1652075429777" class="icon" viewBox="0 0 1024 1024" version="1.1" xmlns="http://www.w3.org/2000/svg" p-id="10979" xmlns:xlink="http://www.w3.org/1999/xlink" width="200" height="200"><defs><style type="text/css">@font-face { font-family: feedback-iconfont; src: url("//at.alicdn.com/t/font_1031158_u69w8yhxdu.woff2?t=1630033759944") format("woff2"), url("//at.alicdn.com/t/font_1031158_u69w8yhxdu.woff?t=1630033759944") format("woff"), url("//at.alicdn.com/t/font_1031158_u69w8yhxdu.ttf?t=1630033759944") format("truetype"); }
</style></defs><path d="M399.581867 794.1632h-112.452267a91.357867 91.357867 0 0 1-91.357867-91.374933V252.996267a91.357867 91.357867 0 0 1 91.357867-91.357867h393.5744a91.357867 91.357867 0 0 1 91.357867 91.357867v168.669866a21.077333 21.077333 0 0 0 42.171733 0v-168.669866A133.5296 133.5296 0 0 0 680.704 119.466667h-393.557333A133.5296 133.5296 0 0 0 153.6 252.996267V702.805333a133.5296 133.5296 0 0 0 133.5296 133.546667h112.452267a21.077333 21.077333 0 0 0 0-42.171733zM510.344533 786.432a189.764267 189.764267 0 1 0 251.562667-255.197867 21.0944 21.0944 0 1 0-18.090667 38.109867 147.592533 147.592533 0 1 1-195.669333 198.485333 21.077333 21.077333 0 1 0-37.802667 18.602667z" p-id="10980"></path><path d="M680.704 484.932267c-120.32 0-217.873067 97.536-217.873067 217.856 0 11.639467 9.454933 21.0944 21.0944 21.0944h196.778667c11.639467 0 21.077333-9.437867 21.077333-21.0944V506.026667c0-11.639467-9.437867-21.077333-21.077333-21.077334z m-21.077333 196.778666h-153.361067a175.786667 175.786667 0 0 1 153.361067-153.344v153.344zM308.224 281.105067h351.402667c14.045867 0 21.077333 7.031467 21.077333 21.0944 0 14.045867-7.031467 21.077333-21.077333 21.077333H308.224c-14.062933 0-21.0944-7.031467-21.0944-21.077333 0-14.062933 7.031467-21.0944 21.0944-21.0944zM308.224 407.620267h238.933333c14.062933 0 21.0944 7.031467 21.0944 21.077333 0 14.062933-7.031467 21.0944-21.077333 21.0944H308.224c-14.062933 0-21.0944-7.031467-21.0944-21.0944 0-14.045867 7.031467-21.077333 21.0944-21.077333zM308.224 534.1184h126.498133c14.062933 0 21.077333 7.031467 21.077334 21.0944 0 14.045867-7.0144 21.077333-21.077334 21.077333H308.224c-14.062933 0-21.0944-7.031467-21.0944-21.077333 0-14.062933 7.031467-21.0944 21.0944-21.0944z" p-id="10981"></path></svg>