<?xml version="1.0" standalone="no"?><!DOCTYPE svg PUBLIC "-//W3C//DTD SVG 1.1//EN" "http://www.w3.org/Graphics/SVG/1.1/DTD/svg11.dtd"><svg t="1653807375400" class="icon" viewBox="0 0 1024 1024" version="1.1" xmlns="http://www.w3.org/2000/svg" p-id="2173" xmlns:xlink="http://www.w3.org/1999/xlink" width="200" height="200"><defs><style type="text/css">@font-face { font-family: feedback-iconfont; src: url("//at.alicdn.com/t/font_1031158_u69w8yhxdu.woff2?t=1630033759944") format("woff2"), url("//at.alicdn.com/t/font_1031158_u69w8yhxdu.woff?t=1630033759944") format("woff"), url("//at.alicdn.com/t/font_1031158_u69w8yhxdu.ttf?t=1630033759944") format("truetype"); }
</style></defs><path d="M235 736.1c-16.4 0-29.8 13.4-29.8 29.8s13.4 29.8 29.8 29.8 29.8-13.4 29.8-29.8-13.3-29.8-29.8-29.8zM850.5 736.1c-16.4 0-29.8 13.4-29.8 29.8s13.4 29.8 29.8 29.8 29.8-13.4 29.8-29.8-13.4-29.8-29.8-29.8z" fill="" p-id="2174"></path><path d="M962 510.9l-100.5-33.5-63.1-164.1c-8.9-23.2-31.6-38.8-56.5-38.8H481.7l-0.3-3.6c-1.3-15.5-14.1-27.2-29.7-27.2h-48.4v-16.4c0-33.4-27.2-60.6-60.6-60.6s-60.6 27.2-60.6 60.6v16.4h-48.4c-15.6 0-28.3 11.7-29.7 27.2l-0.3 3.6H50.4c-16.4 0-29.8 13.4-29.8 29.8v415.4c0 16.4 13.4 29.8 29.8 29.8h94.8c-1 5.3-1.5 10.8-1.5 16.4 0 50.4 41 91.3 91.3 91.3s91.3-41 91.3-91.3c0-5.6-0.5-11.1-1.5-16.4h435.8c-1 5.3-1.5 10.8-1.5 16.4 0 50.4 41 91.3 91.3 91.3s91.3-41 91.3-91.3c0-7.1-0.8-14-2.4-20.7l30.5-15.2c20.6-10.3 33.5-31.1 33.5-54.2V568.4c0.1-26.2-16.5-49.2-41.3-57.5zM787.4 364.8l42.2 109.7H784l-36.6-109.7h40z m-33.8 109.7H635.1c-9 0-16.4-7.3-16.4-16.4v-93.3H717l36.6 109.7zM311 227.3c0-17.5 14.3-31.8 31.8-31.8s31.8 14.3 31.8 31.8v16.4H311v-16.4zM204.7 596.5l28.1-323.1c0-0.5 0.5-0.9 1-0.9h48.4v31.8c0 8 6.4 14.4 14.4 14.4s14.4-6.4 14.4-14.4v-31.8h63.5v31.8c0 8 6.4 14.4 14.4 14.4s14.4-6.4 14.4-14.4v-31.8h48.4c0.5 0 0.9 0.4 1 0.9l28.1 323.1c0 0.1 0 0.4-0.3 0.8-0.3 0.3-0.6 0.3-0.7 0.3H205.7c-0.1 0-0.4 0-0.7-0.3-0.4-0.3-0.3-0.6-0.3-0.8zM235 828.4c-34.5 0-62.5-28.1-62.5-62.5s28.1-62.5 62.5-62.5 62.5 28.1 62.5 62.5c0.1 34.5-28 62.5-62.5 62.5z m615.5 0c-34.5 0-62.5-28.1-62.5-62.5s28.1-62.5 62.5-62.5 62.5 28.1 62.5 62.5-28 62.5-62.5 62.5z m124.1-230.8h-16.4c-8 0-14.4 6.4-14.4 14.4s6.4 14.4 14.4 14.4h16.4v49.4c0 12.1-6.7 23-17.6 28.4l-28.5 14.2c-16-26.3-45-43.9-78-43.9-33.9 0-63.6 18.6-79.3 46.2H314.4c-15.7-27.5-45.4-46.2-79.3-46.2s-63.6 18.6-79.3 46.2H50.4c-0.5 0-1-0.4-1-1v-93.3h77.9c8 0 14.4-6.4 14.4-14.4s-6.4-14.4-14.4-14.4H49.4V304.3c0-0.5 0.4-1 1-1h150.9L176 594c-0.7 8.3 2.1 16.6 7.7 22.7 5.6 6.1 13.6 9.7 22 9.7h274.2c8.3 0 16.3-3.5 22-9.7 5.6-6.1 8.4-14.4 7.7-22.7l-25.3-290.8H742c13 0 25 8.2 29.6 20.4l4.8 12.4h-172c-8 0-14.4 6.4-14.4 14.4v107.7c0 24.9 20.3 45.2 45.2 45.2h213.1L953 538.2c13 4.3 21.7 16.4 21.7 30.1l-0.1 29.3z" fill="" p-id="2175"></path><path d="M896.7 597.6H558.2c-8 0-14.4 6.4-14.4 14.4s6.4 14.4 14.4 14.4h338.5c8 0 14.4-6.4 14.4-14.4s-6.5-14.4-14.4-14.4z" fill="" p-id="2176"></path></svg>