<?xml version="1.0" standalone="no"?><!DOCTYPE svg PUBLIC "-//W3C//DTD SVG 1.1//EN" "http://www.w3.org/Graphics/SVG/1.1/DTD/svg11.dtd"><svg t="1661496717459" class="icon" viewBox="0 0 1024 1024" version="1.1" xmlns="http://www.w3.org/2000/svg" p-id="7995" xmlns:xlink="http://www.w3.org/1999/xlink" width="128" height="128"><path d="M867.614952 71.051765H156.385048c-47.128318 0-85.333283 38.205266-85.333283 85.333283v711.229904c0 47.128318 38.205266 85.333283 85.333283 85.333283H588.317512V865.353257H243.980327C196.852009 865.353257 158.646743 827.147991 158.646743 780.019673V243.980327C158.646743 196.852009 196.852009 158.646743 243.980327 158.646743h536.039647c47.128318 0 85.333584 38.205266 85.333585 85.333584v536.039647c0 47.128318-38.205266 85.333584-85.333585 85.333585H770.114036v87.594977h97.500916c47.128318 0 85.333283-38.204965 85.333283-85.333283V156.385048c0-47.128017-38.204965-85.333283-85.333283-85.333283z" fill="#ffffff" p-id="7996"></path><path d="M468.349568 254.08194h98.740288v540.354718h-98.740288zM677.871642 547.585939h98.740287v246.850719h-98.740287zM247.990146 400.68026h98.740287v393.756398h-98.740287zM247.990146 253.773978h98.740287v85.49464h-98.740287z" fill="#ffffff" p-id="7997"></path></svg>