<?xml version="1.0" standalone="no"?><!DOCTYPE svg PUBLIC "-//W3C//DTD SVG 1.1//EN" "http://www.w3.org/Graphics/SVG/1.1/DTD/svg11.dtd"><svg t="1665658547057" class="icon" viewBox="0 0 1024 1024" version="1.1" xmlns="http://www.w3.org/2000/svg" p-id="2607" xmlns:xlink="http://www.w3.org/1999/xlink" width="128" height="128"><path d="M512 216.5c39.9 0 78.6 7.8 115 23.2 35.2 14.9 66.8 36.2 94 63.4s48.5 58.8 63.4 94c15.4 36.3 23.2 75 23.2 115s-7.8 78.6-23.2 115c-14.9 35.2-36.2 66.8-63.4 94s-58.8 48.5-94 63.4c-36.3 15.4-75 23.2-115 23.2s-78.6-7.8-115-23.2c-35.2-14.9-66.8-36.2-94-63.4s-48.5-58.8-63.4-94c-15.4-36.3-23.2-75-23.2-115s7.8-78.6 23.2-115c14.9-35.2 36.2-66.8 63.4-94 27.2-27.2 58.8-48.5 94-63.4 36.4-15.4 75.1-23.2 115-23.2m0-126C279.2 90.5 90.5 279.2 90.5 512S279.2 933.5 512 933.5 933.5 744.8 933.5 512 744.8 90.5 512 90.5z" fill="#606266" p-id="2608"></path><path d="M554.5 321.6V542c0 23.5-19 42.5-42.5 42.5s-42.5-19-42.5-42.5V321.6c0-23.5 19-42.5 42.5-42.5s42.5 19 42.5 42.5z" fill="#F65509" p-id="2609"></path><path d="M512 677.2m-55.1 0a55.1 55.1 0 1 0 110.2 0 55.1 55.1 0 1 0-110.2 0Z" fill="#F65509" p-id="2610"></path></svg>