<?xml version="1.0" standalone="no"?><!DOCTYPE svg PUBLIC "-//W3C//DTD SVG 1.1//EN" "http://www.w3.org/Graphics/SVG/1.1/DTD/svg11.dtd"><svg t="1661495013762" class="icon" viewBox="0 0 1024 1024" version="1.1" xmlns="http://www.w3.org/2000/svg" p-id="2525" xmlns:xlink="http://www.w3.org/1999/xlink" width="200" height="200"><path d="M829.35 134.81H688.62v-3.42c0-35.39-28.8-64.19-64.19-64.19H389.18C353.79 67.2 325 96 325 131.39v3.42H195.42c-42.53 0-77.13 34.6-77.13 77.13v668.14c0 42.53 34.6 77.12 77.13 77.12h301.33c16.7 0 30.23-13.53 30.23-30.23s-13.53-30.23-30.23-30.23H195.42c-9.19 0-16.66-7.47-16.66-16.65V211.94c0-9.19 7.47-16.66 16.66-16.66h129.9c1.67 33.92 29.54 61.07 63.87 61.07h235.25c34.32 0 62.21-27.15 63.88-61.07h141.05c9.18 0 16.65 7.47 16.65 16.66v343.5c0 16.7 13.53 30.23 30.23 30.23s30.23-13.53 30.23-30.23v-343.5c-0.01-42.53-34.6-77.13-77.13-77.13z m-201.2 57.35c0 2.05-1.67 3.72-3.72 3.72H389.18c-2.05 0-3.71-1.67-3.71-3.72v-60.77c0-2.05 1.66-3.72 3.71-3.72h235.25c2.05 0 3.72 1.67 3.72 3.72v60.77z" fill="#666666" p-id="2526"></path><path d="M321.91 438.39h375.85c19.07 0 34.53-15.46 34.53-34.53s-15.46-34.53-34.53-34.53H321.91c-19.07 0-34.53 15.46-34.53 34.53s15.46 34.53 34.53 34.53zM321.91 580.54h214.46c19.07 0 34.53-15.46 34.53-34.53s-15.46-34.53-34.53-34.53H321.91c-19.07 0-34.53 15.46-34.53 34.53s15.46 34.53 34.53 34.53zM867.88 727.39H744.05V603.56c0-19.07-15.46-34.53-34.53-34.53s-34.53 15.46-34.53 34.53v123.83H551.15c-19.07 0-34.53 15.46-34.53 34.53s15.46 34.53 34.53 34.53h123.83v123.83c0 19.07 15.46 34.53 34.53 34.53s34.53-15.46 34.53-34.53V796.45h123.83c19.07 0 34.53-15.46 34.53-34.53 0.01-19.07-15.45-34.53-34.52-34.53z" fill="#666666" p-id="2527"></path></svg>