<?xml version="1.0" standalone="no"?><!DOCTYPE svg PUBLIC "-//W3C//DTD SVG 1.1//EN" "http://www.w3.org/Graphics/SVG/1.1/DTD/svg11.dtd"><svg t="1655093432060" class="icon" viewBox="0 0 1024 1024" version="1.1" xmlns="http://www.w3.org/2000/svg" p-id="1481" xmlns:xlink="http://www.w3.org/1999/xlink" width="200" height="200"><defs><style type="text/css">@font-face { font-family: feedback-iconfont; src: url("//at.alicdn.com/t/font_1031158_u69w8yhxdu.woff2?t=1630033759944") format("woff2"), url("//at.alicdn.com/t/font_1031158_u69w8yhxdu.woff?t=1630033759944") format("woff"), url("//at.alicdn.com/t/font_1031158_u69w8yhxdu.ttf?t=1630033759944") format("truetype"); }
</style></defs><path d="M756 180c48.601 0 88 39.399 88 88v602c0 48.601-39.399 88-88 88H154c-48.601 0-88-39.399-88-88V268c0-48.601 39.399-88 88-88h602z m0 54H154c-18.59 0-33.695 14.92-34 33.438V870c0 18.59 14.92 33.695 33.438 34H756c18.59 0 33.695-14.92 34-33.438V268c0-18.59-14.92-33.695-33.438-34H756z" p-id="1482"></path><path d="M843 66c62.878 0 113.97 50.463 114.985 113.098L958 181v602c0 14.912-12.088 27-27 27-14.763 0-26.758-11.848-26.996-26.554L904 783V181c0-33.352-26.767-60.453-59.991-60.992L843 120H289.275c-14.911 0-27-12.088-27-27 0-14.763 11.848-26.758 26.554-27H843z" p-id="1483"></path><path d="M245 735c14.912 0 27 12.088 27 27s-12.088 27-27 27h-20c-14.912 0-27-12.088-27-27s12.088-27 27-27h20z m437 0c14.912 0 27 12.088 27 27s-12.088 27-27 27H342c-14.912 0-27-12.088-27-27s12.088-27 27-27h340zM569 542c14.912 0 27 12.088 27 27s-12.088 27-27 27H342c-14.912 0-27-12.088-27-27s12.088-27 27-27h227z m-324 0c14.912 0 27 12.088 27 27s-12.088 27-27 27h-20c-14.912 0-27-12.088-27-27s12.088-27 27-27h20z m324-193c14.912 0 27 12.088 27 27s-12.088 27-27 27H342c-14.912 0-27-12.088-27-27s12.088-27 27-27h227z m-324 0c14.912 0 27 12.088 27 27s-12.088 27-27 27h-20c-14.912 0-27-12.088-27-27s12.088-27 27-27h20z" p-id="1484"></path></svg>