<?xml version="1.0" standalone="no"?><!DOCTYPE svg PUBLIC "-//W3C//DTD SVG 1.1//EN" "http://www.w3.org/Graphics/SVG/1.1/DTD/svg11.dtd"><svg t="1665658800920" class="icon" viewBox="0 0 1024 1024" version="1.1" xmlns="http://www.w3.org/2000/svg" p-id="7439" xmlns:xlink="http://www.w3.org/1999/xlink" width="128" height="128"><path d="M486.4 823.466667c8.533333 4.266667 17.066667 8.533333 25.6 8.533333s17.066667-4.266667 25.6-8.533333c12.8-12.8 315.733333-247.466667 315.733333-490.666667C853.333333 149.333333 699.733333 0 512 0S170.666667 149.333333 170.666667 332.8c0 243.2 302.933333 482.133333 315.733333 490.666667zM512 85.333333c140.8 0 256 110.933333 256 247.466667 0 166.4-187.733333 341.333333-256 401.066667-68.266667-59.733333-256-234.666667-256-401.066667C256 196.266667 371.2 85.333333 512 85.333333z" p-id="7440" fill="#d81e06"></path><path d="M823.466667 725.333333c-21.333333-4.266667-42.666667 8.533333-51.2 29.866667-4.266667 21.333333 8.533333 42.666667 29.866666 51.2 72.533333 21.333333 93.866667 42.666667 93.866667 46.933333-8.533333 21.333333-132.266667 85.333333-384 85.333334-247.466667 0-375.466667-64-384-85.333334 0-4.266667 21.333333-29.866667 89.6-51.2 25.6-4.266667 38.4-29.866667 29.866667-51.2-4.266667-25.6-29.866667-38.4-51.2-29.866666C93.866667 750.933333 42.666667 797.866667 42.666667 853.333333c0 115.2 243.2 170.666667 469.333333 170.666667s469.333333-55.466667 465.066667-166.4c0-55.466667-51.2-102.4-153.6-132.266667zM512 473.6c17.066667 0 34.133333-17.066667 34.133333-34.133333v-213.333334c0-21.333333-12.8-34.133333-34.133333-34.133333s-34.133333 17.066667-34.133333 34.133333v213.333334c0 21.333333 17.066667 34.133333 34.133333 34.133333zM512 601.6c17.066667 0 34.133333-17.066667 34.133333-34.133333v-21.333334c0-21.333333-12.8-34.133333-34.133333-34.133333s-34.133333 17.066667-34.133333 34.133333v21.333334c0 21.333333 17.066667 34.133333 34.133333 34.133333z" p-id="7441" fill="#d81e06"></path></svg>