<?xml version="1.0" standalone="no"?><!DOCTYPE svg PUBLIC "-//W3C//DTD SVG 1.1//EN" "http://www.w3.org/Graphics/SVG/1.1/DTD/svg11.dtd"><svg t="1652074155780" class="icon" viewBox="0 0 1024 1024" version="1.1" xmlns="http://www.w3.org/2000/svg" p-id="4917" xmlns:xlink="http://www.w3.org/1999/xlink" width="200" height="200"><defs><style type="text/css">@font-face { font-family: feedback-iconfont; src: url("//at.alicdn.com/t/font_1031158_u69w8yhxdu.woff2?t=1630033759944") format("woff2"), url("//at.alicdn.com/t/font_1031158_u69w8yhxdu.woff?t=1630033759944") format("woff"), url("//at.alicdn.com/t/font_1031158_u69w8yhxdu.ttf?t=1630033759944") format("truetype"); }
</style></defs><path d="M510.855529 583.198118a50.296471 50.296471 0 0 1-29.81647-9.818353L24.696471 337.739294a36.683294 36.683294 0 0 1-8.975059-6.625882 49.874824 49.874824 0 0 1 0-70.836706 36.984471 36.984471 0 0 1 8.673882-6.384941L482.063059 10.119529a50.236235 50.236235 0 0 1 59.994353-0.12047l456.342588 239.134117a35.659294 35.659294 0 0 1 8.854588 6.445177 49.874824 49.874824 0 0 1 0 70.896941 37.225412 37.225412 0 0 1-8.794353 6.445177L540.912941 573.259294a50.597647 50.597647 0 0 1-30.057412 9.938824zM101.496471 295.333647l409.238588 211.425882 410.624-215.642353-409.238588-214.437647-410.624 218.654118zM1005.929412 687.043765c15.480471 10.721882 28.852706 64.752941-0.240941 79.99247L529.468235 1016.771765c-7.951059 4.818824-29.274353 4.818824-36.98447-0.361412L17.648941 770.891294c-25.720471-17.769412-16.082824-66.861176-4.336941-80.956235l498.206118 257.385412 494.531764-260.216471z m0-219.01553c15.480471 10.601412 28.852706 64.692706-0.421647 79.872l-476.280471 249.795765c-7.951059 4.758588-29.274353 4.758588-36.98447-0.361412L17.648941 551.755294C-8.071529 533.985882 1.566118 484.894118 13.312 470.738824l498.206118 257.445647 494.531764-260.156236z" p-id="4918"></path></svg>