<?xml version="1.0" standalone="no"?><!DOCTYPE svg PUBLIC "-//W3C//DTD SVG 1.1//EN" "http://www.w3.org/Graphics/SVG/1.1/DTD/svg11.dtd"><svg t="1652074569223" class="icon" viewBox="0 0 1024 1024" version="1.1" xmlns="http://www.w3.org/2000/svg" p-id="6202" xmlns:xlink="http://www.w3.org/1999/xlink" width="200" height="200"><defs><style type="text/css">@font-face { font-family: feedback-iconfont; src: url("//at.alicdn.com/t/font_1031158_u69w8yhxdu.woff2?t=1630033759944") format("woff2"), url("//at.alicdn.com/t/font_1031158_u69w8yhxdu.woff?t=1630033759944") format("woff"), url("//at.alicdn.com/t/font_1031158_u69w8yhxdu.ttf?t=1630033759944") format("truetype"); }
</style></defs><path d="M900.096 2.56H128.512c-31.744 0-64 25.6-64 57.344V1024L256 896.512 383.488 1024l127.488-127.488 127.488 127.488 127.488-127.488L957.44 1024V66.56c0-31.744-25.6-64-57.344-64z m-207.36 679.424H402.944c-34.304 0-61.952-27.648-61.952-61.952V270.336c0-34.304 27.648-61.952 61.952-61.952 34.304 0 61.952 27.648 61.952 61.952V558.08h227.84c34.304 0 61.952 27.648 61.952 61.952 0 34.304-27.648 61.952-61.952 61.952z" fill="#FF9860" p-id="6203"></path></svg>