<?xml version="1.0" standalone="no"?><!DOCTYPE svg PUBLIC "-//W3C//DTD SVG 1.1//EN" "http://www.w3.org/Graphics/SVG/1.1/DTD/svg11.dtd"><svg t="1652075307806" class="icon" viewBox="0 0 1024 1024" version="1.1" xmlns="http://www.w3.org/2000/svg" p-id="9981" xmlns:xlink="http://www.w3.org/1999/xlink" width="200" height="200"><defs><style type="text/css">@font-face { font-family: feedback-iconfont; src: url("//at.alicdn.com/t/font_1031158_u69w8yhxdu.woff2?t=1630033759944") format("woff2"), url("//at.alicdn.com/t/font_1031158_u69w8yhxdu.woff?t=1630033759944") format("woff"), url("//at.alicdn.com/t/font_1031158_u69w8yhxdu.ttf?t=1630033759944") format("truetype"); }
</style></defs><path d="M503.850667 639.829333c0 21.717333 4.650667 26.368 26.368 26.368h55.850666c21.717333 0 26.368-4.650667 26.368-26.368V582.4c-1.578667-21.717333-6.186667-26.368-26.368-26.368h-55.850666c-21.717333 0-26.368 4.650667-26.368 26.368v57.429333z m0-144.512c0 21.717333 4.650667 26.368 26.368 26.368h55.850666c21.717333 0 26.368-4.650667 26.368-26.368v-57.386666c-1.578667-20.181333-6.186667-24.832-26.368-24.832h-55.850666c-21.717333 0-26.368 4.650667-26.368 26.368v55.850666z m-373.888 26.368c21.717333 0 26.368-4.650667 26.368-26.368v-57.386666c-1.536-20.181333-6.186667-24.874667-26.368-24.874667H74.112c-21.717333 0-26.368 4.650667-26.368 26.368v55.850667c0 21.717333 4.650667 26.368 26.368 26.368l55.850667 0.042666z m400.256-142.976h55.850666c21.717333 0 26.368-4.650667 26.368-26.368V294.954667c-1.536-23.253333-6.186667-26.368-26.368-26.368h-55.850666c-21.717333 0-26.368 4.650667-26.368 26.368v57.386666c0 21.674667 4.650667 26.368 26.368 26.368z m-271.701334 61.909334h27.477334v53.674666h-27.477334v-53.674666z m-53.717333 0h27.477333v53.674666H204.8v-53.674666z m235.178667 11.818666L372.821333 392.661333a25.813333 25.813333 0 0 0-33.408-0.042666v48.042666h-27.477333v53.674667h27.477333v47.914667c9.258667 8.106667 24.192 8.106667 33.408-0.085334l67.114667-59.776a19.626667 19.626667 0 0 0 0.042667-29.952z m143.573333 264.490667h-96.341333c-11.264-0.384-21.973333 3.370667-27.776 9.770667a14.677333 14.677333 0 0 0 0 20.864c5.802667 6.442667 16.512 10.197333 27.776 9.770666h96.341333c11.264 0.384 21.930667-3.370667 27.776-9.770666a14.677333 14.677333 0 0 0 0-20.864c-5.845333-6.4-16.512-10.197333-27.776-9.770667z m-257.706667-105.984a120.832 120.832 0 1 0-0.042666 241.664 120.832 120.832 0 0 0 0.042666-241.664z m0 203.733333a82.816 82.816 0 1 1 0-165.546666 82.816 82.816 0 0 1 0 165.504v0.042666z m0-22.912" p-id="9982"></path><path d="M742.656 610.944a120.874667 120.874667 0 1 0-0.085333 241.749333 120.874667 120.874667 0 0 0 0.085333-241.749333z m0 198.357333a77.482667 77.482667 0 1 1 0-154.965333 77.482667 77.482667 0 0 1 0 154.965333z m0-17.536" p-id="9983"></path><path d="M1009.792 515.2l-302.976-192.426667v-120.746666a30.506667 30.506667 0 0 0-30.506667-30.506667H103.765333a30.506667 30.506667 0 0 0-30.506666 30.506667v130.261333c0.853333 16.170667 4.309333 26.325333 20.522666 26.325333s15.104-10.112 16-26.325333V208H670.293333v107.008c0 10.410667 5.376 20.138667 14.165334 25.685333l302.933333 192.469334v168.106666h-85.973333a30.592 30.592 0 1 0 0 60.885334h92.032c16.853333 0 30.506667-13.653333 30.506666-30.506667v-190.848a30.378667 30.378667 0 0 0-14.165333-25.6zM166.442667 725.717333H109.824V602.453333c-0.853333-16.170667-2.901333-29.226667-19.114667-29.226666s-16.512 13.056-17.408 29.226666v129.322667c0 16.853333 13.653333 30.506667 30.506667 30.506667h62.634667c11.264 0.597333 24.32-4.010667 27.776-14.72 3.754667-11.648 5.802667 2.645333 0-7.04a30.378667 30.378667 0 0 0-27.776-14.72v-0.085334z m0 0" p-id="9984"></path></svg>