<?xml version="1.0" standalone="no"?><!DOCTYPE svg PUBLIC "-//W3C//DTD SVG 1.1//EN" "http://www.w3.org/Graphics/SVG/1.1/DTD/svg11.dtd"><svg t="1661495988553" class="icon" viewBox="0 0 1024 1024" version="1.1" xmlns="http://www.w3.org/2000/svg" p-id="5102" xmlns:xlink="http://www.w3.org/1999/xlink" width="128" height="128"><path d="M46.155345 920.711821v-815.32794c0-34.329598 27.144333-62.172498 60.475977-62.172498H766.478121c33.331644 0 60.475977 27.942696 60.475977 62.172498v283.61836h39.918137V105.383881c0-56.883345-45.007699-103.288179-100.394114-103.288179H106.631322C51.244908 2.095702 6.237209 48.500536 6.237209 105.383881v815.32794c0 56.98314 45.007699 103.288179 100.394113 103.288179h539.294026V982.984115H106.631322c-33.331644 0-60.475977-27.942696-60.475977-62.272294z" fill="#ffffff" p-id="5103"></path><path d="M130.88159 196.097846h445.685996v39.918137H130.88159zM130.88159 349.982263h564.043271v39.918137H130.88159zM130.88159 504.265861h232.922328v39.918137H130.88159zM752.207387 417.144528c-71.453465 0-138.715525 27.8429-189.211967 78.339343-50.496443 50.496443-78.339343 117.758503-78.339344 189.211968s27.8429 138.715525 78.339344 189.211967 117.758503 78.339343 189.211967 78.339343 138.715525-27.8429 189.211968-78.339343 78.339343-117.758503 78.339343-189.211967-27.8429-138.715525-78.339343-189.211968c-50.596238-50.496443-117.758503-78.339343-189.211968-78.339343z m0 495.28428c-125.54254 0-227.732969-102.19043-227.732969-227.732969S626.664847 457.062664 752.207387 457.062664s227.732969 102.19043 227.73297 227.73297-102.19043 227.633174-227.73297 227.633174z" fill="#ffffff" p-id="5104"></path><path d="M803.901374 752.35708c9.380762-4.2912 13.172985-11.476464 11.476464-21.755384-6.786083-26.445766-13.671962-46.404834-20.458045-60.076796-3.393042-8.482604-10.678102-11.476464-21.755384-8.981581-9.380762 3.393042-12.374622 9.779943-8.981581 19.160706 8.482604 22.952929 15.368483 43.011792 20.458045 60.076796 3.492837 10.27892 9.879739 14.170939 19.260501 11.576259z" fill="#ffffff" p-id="5105"></path><path d="M824.359419 545.381542l-10.179125-10.179125c-13.671962-11.077283-26.844947-9.779943-39.61875 3.792223-6.786083 7.684241-15.767664 17.863366-26.844947 30.63717-17.863366 19.559887-31.535328 34.130007-40.91609 43.410973 1.696521-5.089562 1.696521-10.678102 0-16.566026-2.594679-5.089562-6.386902-7.684241-11.476465-7.684242h-21.755384v-46.005652c-0.898158-9.380762-6.386902-14.470325-16.566027-15.368483-10.179125 0.898158-15.767664 5.98772-16.566026 15.368483V588.792515H614.789202c-9.380762 0.898158-14.470325 6.386902-15.368483 16.566027 0.798363 11.077283 5.98772 17.065003 15.368483 17.863366h22.952928c-6.786083 30.63717-19.559887 64.767177-38.321411 102.19043-5.089562 11.077283-3.393042 19.559887 5.089563 25.547607 10.179125 4.2912 18.761524 1.297339 25.547607-8.98158 2.594679-4.2912 5.98772-11.875646 10.179125-22.952929v98.398207c0.798363 9.380762 6.386902 14.071143 16.566027 14.071143 10.179125-0.898158 15.767664-5.98772 16.566026-15.368483V682.10116c5.089562 10.179125 11.077283 18.761524 17.863366 25.547607 6.786083 5.98772 13.572166 5.588539 20.458046-1.297339 6.786083 17.863366 12.773804 36.225709 17.863366 54.987233 4.2912 9.380762 11.476464 12.773804 21.755384 10.179125 9.380762-4.2912 12.773804-11.875646 10.179125-22.952929-5.98772-22.154566-13.671962-44.708313-22.952929-67.761037-2.594679-4.2912-6.786083-6.386902-12.773803-6.386902-6.786083-0.798363-11.975441 0.898158-15.368483 5.089563-1.696521-2.594679-4.2912-6.386902-7.684241-11.476464-4.2912-6.786083-7.28506-11.875646-8.981581-15.368483-7.684241-10.179125-14.470325-13.572166-20.458045-10.179125v-19.160705H696.621382c-5.98772 7.684241-5.089562 15.368483 2.594679 22.952928 8.482604 6.786083 16.566027 7.28506 24.250268 1.29734 0.798363 6.786083 5.488744 10.678102 14.071143 11.476464h126.540493c10.179125-0.798363 14.869506-7.185265 14.071143-19.160706 9.380762 7.684241 17.065003 8.083423 22.952929 1.29734 6.786083-11.875646 6.786083-21.755384 0-29.439626-18.761524-14.470325-44.309132-36.62489-76.742618-66.363902z m-79.237501 79.137706l35.826528-35.826528c5.089562-5.98772 8.083423-9.380762 8.98158-10.179125 5.089562-5.98772 11.077283-5.488744 17.863366 1.29734 14.470325 14.470325 31.535328 29.439626 51.095215 44.708313h-113.766689z" fill="#ffffff" p-id="5106"></path><path d="M888.228438 785.588929h-35.826528c12.773804-28.940649 25.148426-61.374135 37.024072-97.100867 3.393042-11.875646 0-20.458045-10.179125-25.547608-11.077283-3.393042-18.761524 0.399181-22.952929 11.476464-13.671962 45.20729-27.743105 82.231361-42.213429 111.172011H696.621382c-9.380762 0.898158-14.470325 6.386902-15.368483 16.566027 0.798363 11.077283 6.386902 17.065003 16.566027 17.863366H888.228438c9.380762-0.898158 14.470325-6.786083 15.368482-17.863366-0.798363-10.179125-5.98772-15.667869-15.368482-16.566027z" fill="#ffffff" p-id="5107"></path></svg>