<?xml version="1.0" standalone="no"?><!DOCTYPE svg PUBLIC "-//W3C//DTD SVG 1.1//EN" "http://www.w3.org/Graphics/SVG/1.1/DTD/svg11.dtd"><svg t="1652076720258" class="icon" viewBox="0 0 1216 1024" version="1.1" xmlns="http://www.w3.org/2000/svg" p-id="25330" xmlns:xlink="http://www.w3.org/1999/xlink" width="237.5" height="200"><defs><style type="text/css">@font-face { font-family: feedback-iconfont; src: url("//at.alicdn.com/t/font_1031158_u69w8yhxdu.woff2?t=1630033759944") format("woff2"), url("//at.alicdn.com/t/font_1031158_u69w8yhxdu.woff?t=1630033759944") format("woff"), url("//at.alicdn.com/t/font_1031158_u69w8yhxdu.ttf?t=1630033759944") format("truetype"); }
</style></defs><path d="M1092.928 376.426667c-15.424-17.92-27.669333-31.082667-36.672-39.445334-27.434667-25.984-40.810667-43.114667-50.730667-70.250666l-0.96-3.584c-1.130667-6.378667-21.12-58.24-56.618666-146.026667-14.357333-24.618667-30.250667-43.626667-46.933334-56.405333-12.330667-9.6-48.938667-18.048-75.114666-18.048h-458.666667c-26.176 0-62.805333 8.426667-75.264 18.154666-16.533333 12.672-32.426667 31.701333-46.784 56.32-26.368 64.832-44.138667 109.845333-51.882667 130.986667l3.733334 3.733333-7.701334 7.68a17.429333 17.429333 0 0 0-0.426666 1.642667l-0.704 2.773333c-9.173333 28.053333-24.106667 48.704-49.962667 73.173334-8.746667 8.128-20.778667 21.034667-36.544 39.296 11.392 4.629333 25.173333 10.538667 42.005333 17.898666l4.757334 2.069334 38.784 17.088c13.312 5.845333 21.909333 9.514667 27.584 11.776 20.48 8.064 25.344 28.586667 13.376 45.354666-5.653333 7.914667-14.890667 15.424-27.904 23.829334-5.973333 3.861333-12.714667 7.850667-20.202667 12.053333a1866.453333 1866.453333 0 0 1-41.258667 21.674667c-13.866667 7.68-46.208 5.077333-74.837333-2.368v153.386666c0 45.184 3.498667 63.146667 13.546667 81.664 8.490667 15.722667 20.842667 27.946667 36.778666 36.373334 18.837333 9.962667 37.12 13.44 82.922667 13.44h800.170667c45.824 0 64.085333-3.477333 82.922666-13.44a87.616 87.616 0 0 0 36.778667-36.373334c10.026667-18.538667 13.546667-36.48 13.546667-81.685333v-153.386667c-28.629333 7.466667-61.013333 10.090667-74.88 2.389334 0.490667 0.277333-29.141333-14.933333-41.237334-21.674667-7.466667-4.202667-14.208-8.192-20.202666-12.053333-13.013333-8.405333-22.250667-15.914667-27.904-23.829334-11.968-16.768-7.104-37.290667 13.354666-45.354666 5.696-2.261333 14.293333-5.930667 27.605334-11.776 4.586667-2.005333 30.933333-13.653333 38.762666-17.066667l4.778667-2.090667a1899.136 1899.136 0 0 1 41.984-17.92zM1137.28 362.666667l0.853333-0.021334c29.653333 0 56.533333 38.186667 56.533334 70.826667 0 32.938667-2.922667 53.034667-14.016 68.074667a31.573333 31.573333 0 0 1-7.296 6.741333v170.88c0 51.690667-4.821333 76.373333-18.666667 101.973333A130.837333 130.837333 0 0 1 1130.666667 812.949333v135.04c0 20.544-2.133333 31.488-8.213334 42.901334-5.717333 10.666667-14.208 19.2-24.896 24.896-11.413333 6.101333-22.357333 8.213333-42.922666 8.213333h-61.269334c-20.565333 0-31.509333-2.133333-42.922666-8.213333a60.096 60.096 0 0 1-24.896-24.896C919.466667 979.477333 917.333333 968.533333 917.333333 947.968V853.333333H277.333333v94.634667c0 20.565333-2.133333 31.509333-8.213333 42.922667-5.717333 10.666667-14.208 19.2-24.896 24.896-11.413333 6.101333-22.357333 8.213333-42.922667 8.213333H140.032c-20.565333 0-31.509333-2.133333-42.922667-8.213333a60.096 60.096 0 0 1-24.896-24.896C66.133333 979.477333 64 968.533333 64 947.968v-135.018667a130.837333 130.837333 0 0 1-24-31.786666c-13.866667-25.6-18.666667-50.282667-18.666667-101.973334v-170.88a31.594667 31.594667 0 0 1-7.317333-6.741333C2.922667 486.528 0 466.432 0 433.514667 0 400.853333 26.88 362.666667 56.533333 362.666667h0.554667c1.429333-1.621333 2.794667-3.093333 3.456-3.690667 20.544-24.362667 36.693333-41.984 48.512-52.949333l0.789333-0.768-69.418666-11.605334a42.666667 42.666667 0 0 1-33.450667-55.530666l12.736-38.4c2.56-7.637333 4.437333-11.776 7.573333-16.192 3.242667-4.522667 7.253333-8.234667 12.010667-11.136 4.629333-2.816 8.896-4.394667 16.704-6.357334l65.429333-16.426666 2.048-0.448a42.666667 42.666667 0 0 1 49.877334 32.128c8.682667-21.930667 19.584-48.981333 32.853333-81.6l1.28-2.602667c17.194667-29.824 36.906667-53.568 58.389333-70.016C287.210667 10.410667 332.437333 0 367.232 0h458.666667c34.794667 0 80 10.410667 101.205333 26.944 21.632 16.576 41.344 40.32 58.538667 70.144l1.28 2.645333a7650.944 7650.944 0 0 1 40.298666 101.056l3.605334-18.133333a42.666667 42.666667 0 0 1 50.176-33.493333c1.045333 0.213333 1.045333 0.213333 2.069333 0.469333l65.408 16.426667c7.829333 1.941333 12.074667 3.52 16.725333 6.336 4.757333 2.901333 8.746667 6.613333 11.989334 11.136 3.157333 4.416 5.034667 8.554667 7.573333 16.213333l12.757333 38.4a42.666667 42.666667 0 0 1-33.450666 55.509333l-77.781334 13.013334c11.904 11.157333 27.733333 28.501333 46.784 51.157333 1.216 1.237333 2.56 2.837333 4.181334 4.864zM708.821333 615.978667l102.976-112.362667-4.949333-4.416h-57.557333l-107.050667 116.778667h66.56z m57.877334 0h57.173333l48.064-19.242667 8.682667-32-36.906667-32.768-77.013333 84.010667z m-26.88-159.445334h67.029333a42.666667 42.666667 0 0 1 28.330667 10.773334l83.669333 74.325333a21.333333 21.333333 0 0 1 6.4 21.546667l-14.933333 54.997333a21.333333 21.333333 0 0 1-12.650667 14.208l-57.92 23.189333a42.666667 42.666667 0 0 1-15.872 3.072H343.701333a42.666667 42.666667 0 0 1-15.786666-3.029333l-58.282667-23.210667a21.333333 21.333333 0 0 1-13.141333-16.32l-9.173334-54.997333a21.333333 21.333333 0 0 1 6.528-19.136l79.765334-74.026667a42.666667 42.666667 0 0 1 29.013333-11.392H739.84z m-155.456 159.445334L691.413333 499.2h-66.56l-107.050666 116.778667h66.56z m-124.437334 0l107.050667-116.778667h-66.56l-107.050667 116.778667h66.56z m-122.24-2.410667l104.832-114.368h-79.893333l-71.317333 66.218667 5.290666 31.786666 41.088 16.362667zM140.245333 268.032c1.813333-3.349333 3.413333-6.762667 4.864-10.325333l-13.290666-66.709334-65.429334 16.426667c-2.986667 0.746667-4.053333 1.066667-4.586666 1.28a50.56 50.56 0 0 0-1.6 4.48l-12.736 38.4 91.648 15.317333 1.130666 1.130667z m912.213334-0.853333c1.472 2.645333 3.072 5.205333 4.864 7.786666l8.042666-8.064 91.669334-15.338666-12.757334-38.4a50.56 50.56 0 0 0-1.6-4.48 50.56 50.56 0 0 0-4.586666-1.258667l-65.408-16.426667-13.930667 69.888-6.293333 6.314667zM960 853.333333v94.634667c0 14.122667 0.832 18.432 3.178667 22.826667a17.450667 17.450667 0 0 0 7.381333 7.36c4.373333 2.346667 8.682667 3.178667 22.805333 3.178666h61.269334c14.122667 0 18.432-0.832 22.826666-3.178666a17.450667 17.450667 0 0 0 7.36-7.381334c2.346667-4.373333 3.178667-8.682667 3.178667-22.805333v-107.2c-22.08 9.194667-46.634667 12.565333-90.581333 12.565333H960z m-853.333333-12.586666v107.221333c0 14.122667 0.832 18.432 3.178666 22.826667a17.450667 17.450667 0 0 0 7.381334 7.36c4.373333 2.346667 8.682667 3.178667 22.805333 3.178666h61.269333c14.122667 0 18.432-0.832 22.826667-3.178666a17.450667 17.450667 0 0 0 7.36-7.381334c2.346667-4.373333 3.178667-8.682667 3.178667-22.805333V853.333333H197.248c-43.946667 0-68.501333-3.370667-90.581333-12.586666zM372.074667 85.333333H822.613333c37.12 0 73.173333 32.576 84.288 73.045334l49.493334 115.904 1.045333 3.093333c11.669333 45.653333-17.578667 85.290667-63.957333 85.290667H301.205333c-46.378667 0-75.626667-39.637333-63.957333-85.290667l1.066667-3.093333 49.472-115.904C298.88 117.909333 334.954667 85.333333 372.074667 85.333333z m494.954666 88.384l-1.045333-3.093333C859.968 147.050667 839.146667 128 822.613333 128H372.053333c-16.554667 0-37.376 19.050667-43.392 42.624l-1.066666 3.093333-49.386667 115.669334c-4.053333 18.346667 5.418667 30.613333 22.976 30.613333h592.256c17.557333 0 27.029333-12.245333 22.976-30.613333l-49.408-115.669334zM170.090667 452.544l-38.762667-17.066667-4.714667-2.069333C87.573333 416.341333 59.413333 405.333333 56.512 405.333333 54.293333 405.333333 42.666667 421.866667 42.666667 433.493333c0 23.018667 2.005333 37.333333 5.461333 42.453334-0.96-1.28-1.002667-1.344-0.597333-1.109334 1.813333 1.024 4.48 2.24 7.808 3.52 7.189333 2.773333 16.554667 5.568 26.261333 7.786667 18.304 4.202667 35.434667 5.333333 36.544 4.736 0.341333-0.213333 29.909333-15.36 41.130667-21.632a330.901333 330.901333 0 0 0 20.586666-12.437333l-9.770666-4.266667z m854.464 0l-9.770667 4.266667c0.853333 0.597333 1.770667 1.173333 2.709333 1.792 5.141333 3.328 11.114667 6.869333 17.877334 10.645333 11.221333 6.272 40.768 21.418667 41.130666 21.632 1.109333 0.597333 18.24-0.533333 36.544-4.736a199.786667 199.786667 0 0 0 26.24-7.786667 64.426667 64.426667 0 0 0 7.808-3.52c0.426667-0.213333 0.384-0.192-0.576 1.088 3.456-5.12 5.461333-19.413333 5.461334-42.410666 0-11.648-11.626667-28.181333-13.866667-28.181334-2.901333 0-31.018667 11.008-70.08 28.074667l-4.736 2.069333-38.741333 17.066667zM309.333333 768a21.333333 21.333333 0 0 1 0-42.666667h21.333334a21.333333 21.333333 0 0 1 0 42.666667h-21.333334z m106.666667 0a21.333333 21.333333 0 0 1 0-42.666667h21.333333a21.333333 21.333333 0 0 1 0 42.666667h-21.333333z m106.666667 0a21.333333 21.333333 0 0 1 0-42.666667h21.333333a21.333333 21.333333 0 0 1 0 42.666667h-21.333333z m106.666666 0a21.333333 21.333333 0 0 1 0-42.666667h21.333334a21.333333 21.333333 0 0 1 0 42.666667h-21.333334z m106.666667 0a21.333333 21.333333 0 0 1 0-42.666667h21.333333a21.333333 21.333333 0 0 1 0 42.666667h-21.333333z m106.666667 0a21.333333 21.333333 0 0 1 0-42.666667h21.333333a21.333333 21.333333 0 0 1 0 42.666667h-21.333333z" fill="#F19900" p-id="25331"></path></svg>