<?xml version="1.0" standalone="no"?><!DOCTYPE svg PUBLIC "-//W3C//DTD SVG 1.1//EN" "http://www.w3.org/Graphics/SVG/1.1/DTD/svg11.dtd"><svg t="1664329945912" class="icon" viewBox="0 0 1024 1024" version="1.1" xmlns="http://www.w3.org/2000/svg" p-id="2609" xmlns:xlink="http://www.w3.org/1999/xlink" width="128" height="128"><path d="M136.613948 264.975059h42.827294c16.534588 0 29.906824 13.492706 29.906824 30.117647s-13.372235 30.117647-29.906824 30.117647H29.96736a29.997176 29.997176 0 0 1-29.906824-30.117647v-150.588235c0-16.624941 13.372235-30.117647 29.906824-30.117647 16.504471 0 29.876706 13.492706 29.876706 30.117647v120.470588h11.565176a30.117647 30.117647 0 0 1 4.276706-15.540706C167.243595 95.954824 332.288301 0 513.80736 0 795.588066 0 1024.060536 229.195294 1024.060536 512s-228.472471 512-510.253176 512C256.421948 1024 40.177242 831.698824 7.740536 577.716706a30.087529 30.087529 0 0 1 25.840942-33.731765 29.936941 29.936941 0 0 1 33.460706 26.051765C95.653948 794.021647 286.539595 963.764706 513.80736 963.764706c248.801882 0 450.469647-202.300235 450.469647-451.764706 0-249.464471-201.667765-451.764706-450.469647-451.764706C359.665242 60.235294 219.045948 138.541176 136.613948 264.975059z m317.650824 199.68l-110.47153-117.458824a27.407059 27.407059 0 0 1 1.024-38.550588 26.864941 26.864941 0 0 1 38.219294 1.024l117.790118 125.289412 117.790118-125.289412a26.864941 26.864941 0 0 1 38.219294-1.024 27.407059 27.407059 0 0 1 1.024 38.550588l-110.47153 117.458824h86.347295c14.938353 0 27.045647 12.227765 27.045647 27.286588s-12.107294 27.256471-27.045647 27.256471h-101.376v54.512941h101.376c14.938353 0 27.045647 12.167529 27.045647 27.226353s-12.107294 27.256471-27.045647 27.25647h-101.376v97.490824c0 15.058824-12.107294 27.256471-27.01553 27.25647a27.136 27.136 0 0 1-27.045647-27.25647v-97.490824h-114.868706a27.136 27.136 0 0 1-27.045647-27.25647c0-15.058824 12.107294-27.256471 27.045647-27.256471h114.868706v-54.512941h-114.868706a27.136 27.136 0 0 1-27.045647-27.226353c0-15.058824 12.107294-27.256471 27.045647-27.256471h90.834824z" fill="#ffffff" p-id="2610"></path></svg>