<?xml version="1.0" standalone="no"?><!DOCTYPE svg PUBLIC "-//W3C//DTD SVG 1.1//EN" "http://www.w3.org/Graphics/SVG/1.1/DTD/svg11.dtd"><svg t="1652075380115" class="icon" viewBox="0 0 1024 1024" version="1.1" xmlns="http://www.w3.org/2000/svg" p-id="10793" xmlns:xlink="http://www.w3.org/1999/xlink" width="200" height="200"><defs><style type="text/css">@font-face { font-family: feedback-iconfont; src: url("//at.alicdn.com/t/font_1031158_u69w8yhxdu.woff2?t=1630033759944") format("woff2"), url("//at.alicdn.com/t/font_1031158_u69w8yhxdu.woff?t=1630033759944") format("woff"), url("//at.alicdn.com/t/font_1031158_u69w8yhxdu.ttf?t=1630033759944") format("truetype"); }
</style></defs><path d="M869.418667 0H134.528C83.754667 0 42.666667 44.885333 42.666667 100.266667v814.848c0 55.381333 41.130667 100.266667 91.861333 100.266666h734.890667c50.773333 0 91.861333-44.885333 91.861333-100.266666V100.309333C961.28 44.885333 920.149333 0 869.418667 0z m0 944.64H134.528c-14.933333 0-27.050667-13.226667-27.050667-29.525333V100.309333c0-16.298667 12.117333-29.568 27.050667-29.568h734.890667c14.933333 0 27.050667 13.226667 27.050666 29.568v814.805334c0 16.298667-12.117333 29.525333-27.050666 29.525333z" p-id="10794"></path><path d="M353.322667 928.170667c-38.186667 0-70.314667-28.8-82.474667-57.216l-1.749333-4.266667H98.133333V817.066667H268.8l1.749333-4.266667c11.946667-29.013333 44.288-58.410667 82.773334-58.410667 38.570667 0 70.826667 29.44 82.773333 58.410667l1.749333 4.266667h30.378667a38.4 38.4 0 0 0 29.312-12.245334 36.053333 36.053333 0 0 0 9.472-29.696l-16.085333-127.573333a39.253333 39.253333 0 0 0-38.784-34.389333H130.218667v-49.536h207.786666v-8.661334l-0.768-1.664-69.248-130.218666h-137.813333V373.674667h153.002667c9.386667 0 17.877333 5.12 22.186666 13.312l93.909334 176.682666h52.906666c44.842667 0 82.944 33.365333 88.533334 77.653334l16.085333 128a85.546667 85.546667 0 0 1-21.589333 68.352c-16.469333 18.346667-40.832 29.013333-66.858667 29.013333h-30.805333l-1.749334 4.266667c-12.032 28.416-44.202667 57.216-82.474666 57.216z m-0.298667-122.538667a37.546667 37.546667 0 0 0-36.181333 37.376c0 20.053333 15.872 36.522667 36.181333 37.376a37.632 37.632 0 0 0 36.778667-37.376 37.546667 37.546667 0 0 0-36.181334-37.376h-0.597333zM697.002667 231.552H442.965333c-6.570667 0-11.946667 9.514667-11.946666 21.12s5.376 21.12 11.946666 21.12h254.037334c6.570667 0 11.946667-9.514667 11.946666-21.12s-5.376-21.12-11.946666-21.12z m-40.832 205.994667h-215.04c-5.546667 0-10.112 9.514667-10.112 21.162666 0 11.605333 4.522667 21.12 10.112 21.12h215.04c5.546667 0 10.112-9.514667 10.112-21.12 0-11.648-4.565333-21.162667-10.112-21.162666z" p-id="10795"></path></svg>