<?xml version="1.0" standalone="no"?><!DOCTYPE svg PUBLIC "-//W3C//DTD SVG 1.1//EN" "http://www.w3.org/Graphics/SVG/1.1/DTD/svg11.dtd"><svg t="1652071251568" class="icon" viewBox="0 0 1055 1024" version="1.1" xmlns="http://www.w3.org/2000/svg" p-id="3160" xmlns:xlink="http://www.w3.org/1999/xlink" width="206.0546875" height="200"><defs><style type="text/css">@font-face { font-family: feedback-iconfont; src: url("//at.alicdn.com/t/font_1031158_u69w8yhxdu.woff2?t=1630033759944") format("woff2"), url("//at.alicdn.com/t/font_1031158_u69w8yhxdu.woff?t=1630033759944") format("woff"), url("//at.alicdn.com/t/font_1031158_u69w8yhxdu.ttf?t=1630033759944") format("truetype"); }
</style></defs><path d="M1031.75 352.354S555.438 17.54 551.59 15.088c-29.354-20.324-29.354-20.324-59.888 1.304L12.784 352.354c-15.297 10.178-16.6 33.047-5.15 49.648 11.48 16.57 34.38 21.597 48.406 11.45l33.078-24.203v556.307c0 20.325 16.601 38.198 38.23 38.198a37.546 37.546 0 0 0 38.228-38.198V338.329L522.36 86.364 885.32 342.176v128.03c0 20.356 16.601 38.23 38.229 38.23 20.356 0 38.229-16.602 38.229-38.23v-73.23l25.476 16.57c15.328 10.177 35.684 5.15 48.407-11.42 12.722-17.873 8.874-39.594-3.848-49.772" fill="" p-id="3161"></path><path d="M479.228 790.188c0.59-12.505 32.52-52.44 42.45-66.249 8.409-11.791 15.887-26.655 27.337-27.337a565.058 565.058 0 0 1 54.489 0.217v93.245c-32.613 1.055-90.143 0.466-124.276 0.124z m171.286 139.946c17.625-0.124 23.242-13.219 23.242-30.41V683.632c0-17.873-3.165-30.968-20.232-33.42l-108.14-0.34c-19.517 0.713-25.227 11.45-33.76 21.255-3.63 4.344-7.85 10.302-11.792 15.515-15.918 21.287-45.273 57.033-54.737 79.592-8.874 21.38-5.492 75.714-5.492 102.555 0 43.566-6.889 67.397 46.297 61.222 4.561-10.52 3.972-17.656 10.054-28.61 35.436-62.153 135.942-58.554 154.53 28.734z m367.862 0.465c13.808 0 22.435-3.723 27.244-13.218 4.779-9.558 2.452-63.178 2.452-78.258V598.236c0-34.691-2.11-41.828-37.981-41.828H768.925c-82.323 0-71.803-7.696-71.803 90.422v239.862c0 35.002 0.496 43.907 37.298 43.752h79.623c16.135-94.703 147.89-94.703 163.994 0 13.467 0 26.903 0 40.339 0.155zM248.24 616.11h119.714V496.49H248.24v119.62z m0 184.475h119.714V680.963H248.24v119.62z m0 179.446h119.714V860.41H248.24v119.62z" fill="" p-id="3162"></path><path d="M527.76 948.628a53.651 53.651 0 0 0 48.5 59.02 53.651 53.651 0 0 0 58.801-49.184c2.7-32.023-20.914-55.14-49.555-58.057-30.285-2.917-55.047 20.915-57.747 48.221m328.733-6.516c-7.602 32.457 15.422 58.957 40.556 64.604 32.613 7.354 58.337-14.956 64.419-40.184 8.067-33.543-14.864-58.43-40.34-64.977-32.86-8.285-58.801 15.422-64.635 40.557" fill="" p-id="3163"></path></svg>