<?xml version="1.0" standalone="no"?><!DOCTYPE svg PUBLIC "-//W3C//DTD SVG 1.1//EN" "http://www.w3.org/Graphics/SVG/1.1/DTD/svg11.dtd"><svg t="1652071317091" class="icon" viewBox="0 0 1024 1024" version="1.1" xmlns="http://www.w3.org/2000/svg" p-id="3297" xmlns:xlink="http://www.w3.org/1999/xlink" width="200" height="200"><defs><style type="text/css">@font-face { font-family: feedback-iconfont; src: url("//at.alicdn.com/t/font_1031158_u69w8yhxdu.woff2?t=1630033759944") format("woff2"), url("//at.alicdn.com/t/font_1031158_u69w8yhxdu.woff?t=1630033759944") format("woff"), url("//at.alicdn.com/t/font_1031158_u69w8yhxdu.ttf?t=1630033759944") format("truetype"); }
</style></defs><path d="M453.333333 932.266667c-11.733333 0-20.266667-3.2-24.533333-11.733334-4.266667-8.533333-2.133333-56.533333-2.133333-71.466666V633.6c0-30.933333 2.133333-38.4 34.133333-38.4h217.6c73.6 0 65.066667-7.466667 65.066667 82.133333v216.533334c0 32 0 40.533333-34.133334 40.533333h-72.533333c-14.933333-85.333333-133.333333-85.333333-148.266667 0-10.666667-2.133333-23.466667-2.133333-35.2-2.133333z m331.733334 0c17.066667-78.933333 107.733333-82.133333 138.666666-25.6 6.4 9.6 5.333333 16 8.533334 25.6 48 6.4 41.6-16 41.6-55.466667 0-24.533333 3.2-72.533333-5.333334-92.8-8.533333-20.266667-35.2-52.266667-49.066666-72.533333-4.266667-5.333333-7.466667-9.6-10.666667-13.866667-8.533333-8.533333-12.8-19.2-29.866667-19.2h-97.066666c-14.933333 2.133333-18.133333 13.866667-18.133334 29.866667v195.2c1.066667 17.066667 5.333333 28.8 21.333334 28.8z m154.666666-125.866667c-30.933333 0-83.2 1.066667-112 0v-84.266667c13.866667-1.066667 36.266667-1.066667 49.066667 0 9.6 1.066667 17.066667 13.866667 24.533333 24.533334 9.6 11.733333 38.4 48 38.4 59.733333z" p-id="3298"></path><path d="M611.2 932.266667c7.466667 28.8-13.866667 53.333333-37.333333 57.6-28.8 7.466667-53.333333-12.8-57.6-36.266667-7.466667-29.866667 12.8-53.333333 36.266666-58.666667 29.866667-6.4 53.333333 14.933333 58.666667 37.333334z m296.533333 6.4c3.2 28.8-18.133333 51.2-43.733333 53.333333-27.733333 3.2-51.2-19.2-53.333333-43.733333-2.133333-28.8 19.2-50.133333 44.8-52.266667 27.733333-3.2 50.133333 17.066667 52.266666 42.666667zM51.2 258.133333V992h167.466667V392.533333h588.8V512h167.466666V260.266667c0-8.533333-17.066667-13.866667-24.533333-17.066667l-42.666667-21.333333c-6.4-3.2-8.533333-5.333333-14.933333-8.533334-10.666667-5.333333-19.2-8.533333-29.866667-13.866666-53.333333-24.533333-120.533333-59.733333-173.866666-82.133334L524.8 42.666667c-28.8-13.866667-22.4-13.866667-43.733333-4.266667l-145.066667 72.533333c-9.6 5.333333-19.2 8.533333-28.8 13.866667L76.8 240c-5.333333 4.266667-25.6 10.666667-25.6 18.133333z" p-id="3299"></path><path d="M266.666667 729.6h103.466666v88.533333H266.666667v-88.533333z m0-119.466667h103.466666v87.466667H266.666667v-87.466667z" p-id="3300"></path></svg>